<svg width="1114" height="550" viewBox="0 0 1114 550" fill="none" xmlns="http://www.w3.org/2000/svg">
<rect width="1114" height="550" fill="#F5F5F5"/>
<g id="wrapper">
<rect id="background" width="1114" height="550" rx="40" fill="#DFDFDF"/>
<g id="status-indicators-wrapper">
<g id="battery-wrapper">
<rect id="Rectangle 33" x="411" y="47" width="276" height="114" rx="8" fill="black"/>
<g id="battery">
<rect id="Rectangle 34" x="473" y="78" width="36" height="36" rx="18" transform="rotate(90 473 78)" fill="#FF0000"/>
<rect id="Rectangle 35" x="567" y="78" width="36" height="36" rx="18" transform="rotate(90 567 78)" fill="#FF0000"/>
<rect id="Rectangle 36" x="661" y="78" width="36" height="36" rx="18" transform="rotate(90 661 78)" fill="#FF0000"/>
</g>
<path id="Battery" d="M527.026 149V140.273H530.52C531.162 140.273 531.698 140.368 532.127 140.558C532.556 140.749 532.878 141.013 533.094 141.351C533.31 141.686 533.418 142.072 533.418 142.51C533.418 142.851 533.35 143.151 533.214 143.409C533.077 143.665 532.89 143.875 532.651 144.04C532.415 144.202 532.145 144.317 531.841 144.385V144.47C532.174 144.484 532.485 144.578 532.775 144.751C533.067 144.925 533.305 145.168 533.486 145.48C533.668 145.79 533.759 146.159 533.759 146.588C533.759 147.051 533.644 147.464 533.414 147.828C533.187 148.189 532.85 148.474 532.404 148.685C531.958 148.895 531.408 149 530.755 149H527.026ZM528.871 147.491H530.376C530.89 147.491 531.265 147.393 531.501 147.197C531.736 146.999 531.854 146.734 531.854 146.405C531.854 146.163 531.796 145.95 531.68 145.766C531.563 145.581 531.397 145.436 531.181 145.331C530.968 145.226 530.714 145.173 530.418 145.173H528.871V147.491ZM528.871 143.925H530.239C530.492 143.925 530.716 143.881 530.912 143.793C531.111 143.702 531.268 143.574 531.381 143.409C531.498 143.244 531.556 143.047 531.556 142.817C531.556 142.501 531.444 142.247 531.219 142.054C530.998 141.861 530.682 141.764 530.273 141.764H528.871V143.925ZM536.792 149.124C536.374 149.124 536.002 149.051 535.676 148.906C535.349 148.759 535.09 148.541 534.9 148.254C534.713 147.964 534.619 147.604 534.619 147.172C534.619 146.808 534.686 146.503 534.819 146.256C534.953 146.009 535.134 145.81 535.365 145.659C535.595 145.509 535.856 145.395 536.149 145.318C536.444 145.241 536.754 145.188 537.078 145.156C537.458 145.116 537.765 145.08 537.998 145.045C538.231 145.009 538.4 144.955 538.505 144.884C538.61 144.812 538.663 144.707 538.663 144.568V144.543C538.663 144.273 538.578 144.064 538.407 143.916C538.24 143.768 538.001 143.695 537.691 143.695C537.365 143.695 537.105 143.767 536.911 143.912C536.718 144.054 536.59 144.233 536.528 144.449L534.849 144.312C534.934 143.915 535.102 143.571 535.352 143.281C535.602 142.989 535.924 142.764 536.319 142.608C536.717 142.449 537.177 142.369 537.7 142.369C538.063 142.369 538.411 142.412 538.744 142.497C539.079 142.582 539.376 142.714 539.634 142.893C539.896 143.072 540.102 143.303 540.252 143.584C540.403 143.862 540.478 144.196 540.478 144.585V149H538.757V148.092H538.705C538.6 148.297 538.46 148.477 538.284 148.634C538.107 148.787 537.896 148.908 537.649 148.996C537.401 149.081 537.116 149.124 536.792 149.124ZM537.312 147.871C537.579 147.871 537.815 147.818 538.019 147.713C538.224 147.605 538.384 147.46 538.501 147.278C538.617 147.097 538.676 146.891 538.676 146.661V145.966C538.619 146.003 538.541 146.037 538.441 146.068C538.345 146.097 538.235 146.124 538.113 146.149C537.991 146.172 537.869 146.193 537.747 146.213C537.624 146.23 537.514 146.246 537.414 146.26C537.201 146.291 537.015 146.341 536.856 146.409C536.697 146.477 536.573 146.57 536.485 146.686C536.397 146.8 536.353 146.942 536.353 147.112C536.353 147.359 536.443 147.548 536.622 147.679C536.803 147.807 537.034 147.871 537.312 147.871ZM545.368 142.455V143.818H541.426V142.455H545.368ZM542.321 140.886H544.137V146.989C544.137 147.156 544.162 147.287 544.213 147.381C544.264 147.472 544.335 147.536 544.426 147.572C544.52 147.609 544.628 147.628 544.75 147.628C544.835 147.628 544.921 147.621 545.006 147.607C545.091 147.589 545.156 147.577 545.202 147.568L545.487 148.919C545.396 148.947 545.269 148.98 545.104 149.017C544.939 149.057 544.739 149.081 544.503 149.089C544.066 149.107 543.682 149.048 543.352 148.915C543.026 148.781 542.771 148.574 542.59 148.293C542.408 148.011 542.318 147.656 542.321 147.227V140.886ZM550.032 142.455V143.818H546.09V142.455H550.032ZM546.985 140.886H548.801V146.989C548.801 147.156 548.826 147.287 548.877 147.381C548.928 147.472 548.999 147.536 549.09 147.572C549.184 147.609 549.292 147.628 549.414 147.628C549.499 147.628 549.585 147.621 549.67 147.607C549.755 147.589 549.82 147.577 549.866 147.568L550.151 148.919C550.061 148.947 549.933 148.98 549.768 149.017C549.603 149.057 549.403 149.081 549.167 149.089C548.73 149.107 548.346 149.048 548.017 148.915C547.69 148.781 547.436 148.574 547.254 148.293C547.072 148.011 546.982 147.656 546.985 147.227V140.886ZM554.127 149.128C553.454 149.128 552.874 148.991 552.389 148.719C551.906 148.443 551.534 148.054 551.272 147.551C551.011 147.045 550.88 146.447 550.88 145.757C550.88 145.084 551.011 144.493 551.272 143.984C551.534 143.476 551.901 143.08 552.376 142.795C552.853 142.511 553.413 142.369 554.055 142.369C554.487 142.369 554.889 142.439 555.261 142.578C555.636 142.714 555.963 142.92 556.241 143.196C556.522 143.472 556.741 143.818 556.897 144.236C557.053 144.651 557.132 145.136 557.132 145.693V146.192H551.605V145.067H555.423C555.423 144.805 555.366 144.574 555.252 144.372C555.139 144.17 554.981 144.013 554.779 143.899C554.58 143.783 554.349 143.724 554.085 143.724C553.809 143.724 553.565 143.788 553.352 143.916C553.142 144.041 552.977 144.21 552.857 144.423C552.738 144.634 552.677 144.868 552.674 145.126V146.196C552.674 146.52 552.734 146.8 552.853 147.036C552.975 147.271 553.147 147.453 553.369 147.581C553.59 147.709 553.853 147.773 554.157 147.773C554.359 147.773 554.544 147.744 554.711 147.688C554.879 147.631 555.022 147.545 555.142 147.432C555.261 147.318 555.352 147.179 555.414 147.014L557.093 147.125C557.008 147.528 556.833 147.881 556.569 148.182C556.308 148.48 555.97 148.713 555.555 148.881C555.143 149.045 554.667 149.128 554.127 149.128ZM558.316 149V142.455H560.076V143.597H560.144C560.264 143.19 560.464 142.884 560.745 142.676C561.026 142.466 561.35 142.361 561.717 142.361C561.808 142.361 561.906 142.366 562.011 142.378C562.116 142.389 562.208 142.405 562.288 142.425V144.036C562.203 144.01 562.085 143.987 561.934 143.967C561.784 143.947 561.646 143.938 561.521 143.938C561.254 143.938 561.015 143.996 560.805 144.112C560.597 144.226 560.433 144.385 560.311 144.589C560.191 144.794 560.132 145.03 560.132 145.297V149H558.316ZM564.546 151.455C564.316 151.455 564.1 151.436 563.899 151.399C563.7 151.365 563.535 151.321 563.404 151.267L563.813 149.912C564.026 149.977 564.218 150.013 564.389 150.018C564.562 150.024 564.711 149.984 564.836 149.899C564.964 149.814 565.068 149.669 565.147 149.464L565.254 149.188L562.906 142.455H564.815L566.17 147.261H566.238L567.606 142.455H569.528L566.984 149.707C566.862 150.06 566.695 150.366 566.485 150.628C566.278 150.892 566.015 151.095 565.697 151.237C565.379 151.382 564.995 151.455 564.546 151.455Z" fill="white"/>
</g>
<g id="active-wrapper">
<rect id="Rectangle 37" x="411" y="167" width="276" height="114" rx="8" fill="black"/>
<g id="activeDrone">
<rect id="Rectangle 38" x="473" y="198" width="36" height="36" rx="18" transform="rotate(90 473 198)" fill="#FF0000"/>
<rect id="Rectangle 39" x="567" y="198" width="36" height="36" rx="18" transform="rotate(90 567 198)" fill="#05FF00"/>
<rect id="Rectangle 40" x="661" y="198" width="36" height="36" rx="18" transform="rotate(90 661 198)" fill="#FF0000"/>
<path id="mid2-value" d="M553.11 224.042L551.166 222.188V217.76L553.11 215.996V224.042ZM553.056 207.32V215.366L551.112 213.62V209.174L553.056 207.32Z" fill="black"/>
<path id="mid3-value" d="M648.11 224.042L646.166 222.188V217.76L648.11 215.996V224.042ZM648.056 207.32V215.366L646.112 213.62V209.174L648.056 207.32Z" fill="black"/>
<path id="mid1-value" d="M459.11 224.042L457.166 222.188V217.76L459.11 215.996V224.042ZM459.056 207.32V215.366L457.112 213.62V209.174L459.056 207.32Z" fill="black"/>
</g>
<path id="Active Drone" d="M512.388 269H510.411L513.423 260.273H515.801L518.81 269H516.832L514.646 262.267H514.578L512.388 269ZM512.264 265.57H516.935V267.01H512.264V265.57ZM522.479 269.128C521.808 269.128 521.232 268.986 520.749 268.702C520.268 268.415 519.899 268.017 519.641 267.509C519.385 267 519.257 266.415 519.257 265.753C519.257 265.082 519.386 264.494 519.645 263.989C519.906 263.48 520.277 263.084 520.757 262.8C521.237 262.513 521.808 262.369 522.47 262.369C523.041 262.369 523.541 262.473 523.97 262.68C524.399 262.888 524.739 263.179 524.989 263.554C525.239 263.929 525.376 264.369 525.402 264.875H523.689C523.641 264.548 523.513 264.286 523.305 264.087C523.101 263.885 522.832 263.784 522.5 263.784C522.219 263.784 521.973 263.861 521.763 264.014C521.555 264.165 521.393 264.385 521.277 264.675C521.161 264.964 521.102 265.315 521.102 265.727C521.102 266.145 521.159 266.5 521.273 266.793C521.389 267.085 521.553 267.308 521.763 267.462C521.973 267.615 522.219 267.692 522.5 267.692C522.707 267.692 522.893 267.649 523.058 267.564C523.226 267.479 523.364 267.355 523.472 267.193C523.582 267.028 523.655 266.831 523.689 266.601H525.402C525.374 267.101 525.237 267.541 524.993 267.922C524.751 268.3 524.418 268.595 523.991 268.808C523.565 269.021 523.061 269.128 522.479 269.128ZM530.046 262.455V263.818H526.104V262.455H530.046ZM526.999 260.886H528.814V266.989C528.814 267.156 528.84 267.287 528.891 267.381C528.942 267.472 529.013 267.536 529.104 267.572C529.198 267.609 529.306 267.628 529.428 267.628C529.513 267.628 529.598 267.621 529.684 267.607C529.769 267.589 529.834 267.577 529.88 267.568L530.165 268.919C530.074 268.947 529.946 268.98 529.782 269.017C529.617 269.057 529.417 269.081 529.181 269.089C528.743 269.107 528.36 269.048 528.03 268.915C527.703 268.781 527.449 268.574 527.267 268.293C527.086 268.011 526.996 267.656 526.999 267.227V260.886ZM531.228 269V262.455H533.044V269H531.228ZM532.14 261.611C531.87 261.611 531.639 261.521 531.446 261.342C531.255 261.161 531.16 260.943 531.16 260.69C531.16 260.44 531.255 260.226 531.446 260.047C531.639 259.865 531.87 259.774 532.14 259.774C532.41 259.774 532.64 259.865 532.831 260.047C533.024 260.226 533.12 260.44 533.12 260.69C533.12 260.943 533.024 261.161 532.831 261.342C532.64 261.521 532.41 261.611 532.14 261.611ZM540.6 262.455L538.312 269H536.266L533.978 262.455H535.896L537.255 267.138H537.323L538.678 262.455H540.6ZM544.301 269.128C543.628 269.128 543.048 268.991 542.562 268.719C542.08 268.443 541.707 268.054 541.446 267.551C541.185 267.045 541.054 266.447 541.054 265.757C541.054 265.084 541.185 264.493 541.446 263.984C541.707 263.476 542.075 263.08 542.55 262.795C543.027 262.511 543.587 262.369 544.229 262.369C544.661 262.369 545.063 262.439 545.435 262.578C545.81 262.714 546.136 262.92 546.415 263.196C546.696 263.472 546.915 263.818 547.071 264.236C547.227 264.651 547.305 265.136 547.305 265.693V266.192H541.778V265.067H545.597C545.597 264.805 545.54 264.574 545.426 264.372C545.313 264.17 545.155 264.013 544.953 263.899C544.754 263.783 544.523 263.724 544.259 263.724C543.983 263.724 543.739 263.788 543.526 263.916C543.315 264.041 543.151 264.21 543.031 264.423C542.912 264.634 542.851 264.868 542.848 265.126V266.196C542.848 266.52 542.908 266.8 543.027 267.036C543.149 267.271 543.321 267.453 543.543 267.581C543.764 267.709 544.027 267.773 544.331 267.773C544.533 267.773 544.717 267.744 544.885 267.688C545.053 267.631 545.196 267.545 545.315 267.432C545.435 267.318 545.526 267.179 545.588 267.014L547.267 267.125C547.182 267.528 547.007 267.881 546.743 268.182C546.482 268.48 546.143 268.713 545.729 268.881C545.317 269.045 544.841 269.128 544.301 269.128ZM554.395 269H551.301V260.273H554.421C555.299 260.273 556.054 260.447 556.688 260.797C557.321 261.143 557.809 261.642 558.15 262.293C558.493 262.943 558.665 263.722 558.665 264.628C558.665 265.537 558.493 266.318 558.15 266.972C557.809 267.625 557.319 268.126 556.679 268.476C556.043 268.825 555.282 269 554.395 269ZM553.147 267.419H554.319C554.864 267.419 555.323 267.322 555.695 267.129C556.07 266.933 556.351 266.631 556.539 266.222C556.729 265.81 556.824 265.278 556.824 264.628C556.824 263.983 556.729 263.456 556.539 263.047C556.351 262.638 556.071 262.337 555.699 262.143C555.327 261.95 554.868 261.854 554.323 261.854H553.147V267.419ZM559.998 269V262.455H561.758V263.597H561.826C561.945 263.19 562.146 262.884 562.427 262.676C562.708 262.466 563.032 262.361 563.398 262.361C563.489 262.361 563.587 262.366 563.692 262.378C563.798 262.389 563.89 262.405 563.969 262.425V264.036C563.884 264.01 563.766 263.987 563.616 263.967C563.465 263.947 563.327 263.938 563.202 263.938C562.935 263.938 562.697 263.996 562.487 264.112C562.279 264.226 562.114 264.385 561.992 264.589C561.873 264.794 561.813 265.03 561.813 265.297V269H559.998ZM567.561 269.128C566.899 269.128 566.326 268.987 565.843 268.706C565.363 268.422 564.993 268.027 564.731 267.521C564.47 267.013 564.339 266.423 564.339 265.753C564.339 265.077 564.47 264.486 564.731 263.98C564.993 263.472 565.363 263.077 565.843 262.795C566.326 262.511 566.899 262.369 567.561 262.369C568.223 262.369 568.794 262.511 569.274 262.795C569.757 263.077 570.129 263.472 570.39 263.98C570.652 264.486 570.782 265.077 570.782 265.753C570.782 266.423 570.652 267.013 570.39 267.521C570.129 268.027 569.757 268.422 569.274 268.706C568.794 268.987 568.223 269.128 567.561 269.128ZM567.569 267.722C567.87 267.722 568.122 267.636 568.324 267.466C568.525 267.293 568.677 267.057 568.779 266.759C568.885 266.46 568.937 266.121 568.937 265.74C568.937 265.359 568.885 265.02 568.779 264.722C568.677 264.423 568.525 264.187 568.324 264.014C568.122 263.841 567.87 263.754 567.569 263.754C567.265 263.754 567.01 263.841 566.802 264.014C566.598 264.187 566.443 264.423 566.338 264.722C566.235 265.02 566.184 265.359 566.184 265.74C566.184 266.121 566.235 266.46 566.338 266.759C566.443 267.057 566.598 267.293 566.802 267.466C567.01 267.636 567.265 267.722 567.569 267.722ZM573.778 265.216V269H571.963V262.455H573.693V263.609H573.77C573.914 263.229 574.157 262.928 574.498 262.706C574.839 262.482 575.252 262.369 575.738 262.369C576.193 262.369 576.589 262.469 576.927 262.668C577.265 262.866 577.528 263.151 577.716 263.52C577.903 263.886 577.997 264.324 577.997 264.832V269H576.181V265.156C576.184 264.756 576.082 264.443 575.875 264.219C575.667 263.991 575.382 263.878 575.018 263.878C574.774 263.878 574.558 263.93 574.37 264.036C574.186 264.141 574.041 264.294 573.936 264.496C573.833 264.695 573.781 264.935 573.778 265.216ZM582.411 269.128C581.737 269.128 581.158 268.991 580.672 268.719C580.189 268.443 579.817 268.054 579.555 267.551C579.294 267.045 579.163 266.447 579.163 265.757C579.163 265.084 579.294 264.493 579.555 263.984C579.817 263.476 580.185 263.08 580.659 262.795C581.136 262.511 581.696 262.369 582.338 262.369C582.77 262.369 583.172 262.439 583.544 262.578C583.919 262.714 584.246 262.92 584.524 263.196C584.805 263.472 585.024 263.818 585.18 264.236C585.337 264.651 585.415 265.136 585.415 265.693V266.192H579.888V265.067H583.706C583.706 264.805 583.649 264.574 583.536 264.372C583.422 264.17 583.264 264.013 583.062 263.899C582.864 263.783 582.632 263.724 582.368 263.724C582.092 263.724 581.848 263.788 581.635 263.916C581.425 264.041 581.26 264.21 581.141 264.423C581.021 264.634 580.96 264.868 580.957 265.126V266.196C580.957 266.52 581.017 266.8 581.136 267.036C581.259 267.271 581.43 267.453 581.652 267.581C581.874 267.709 582.136 267.773 582.44 267.773C582.642 267.773 582.827 267.744 582.994 267.688C583.162 267.631 583.305 267.545 583.425 267.432C583.544 267.318 583.635 267.179 583.697 267.014L585.376 267.125C585.291 267.528 585.116 267.881 584.852 268.182C584.591 268.48 584.253 268.713 583.838 268.881C583.426 269.045 582.95 269.128 582.411 269.128Z" fill="white"/>
</g>
<g id="connection-wrapper">
<rect id="Rectangle 41" x="411" y="287" width="276" height="114" rx="8" fill="black"/>
<g id="connections">
<rect id="Rectangle 42" x="473" y="318" width="36" height="36" rx="18" transform="rotate(90 473 318)" fill="#05FF00"/>
<rect id="Rectangle 43" x="567" y="318" width="36" height="36" rx="18" transform="rotate(90 567 318)" fill="#05FF00"/>
<rect id="Rectangle 44" x="661" y="318" width="36" height="36" rx="18" transform="rotate(90 661 318)" fill="#05FF00"/>
</g>
<path id="Connection" d="M522.816 383.328H520.95C520.916 383.087 520.846 382.872 520.741 382.685C520.636 382.494 520.501 382.332 520.336 382.199C520.171 382.065 519.981 381.963 519.765 381.892C519.552 381.821 519.32 381.786 519.07 381.786C518.619 381.786 518.225 381.898 517.89 382.122C517.555 382.344 517.295 382.668 517.11 383.094C516.926 383.517 516.833 384.031 516.833 384.636C516.833 385.259 516.926 385.781 517.11 386.205C517.298 386.628 517.559 386.947 517.894 387.163C518.23 387.379 518.617 387.487 519.058 387.487C519.305 387.487 519.534 387.455 519.744 387.389C519.957 387.324 520.146 387.229 520.311 387.104C520.475 386.976 520.612 386.821 520.72 386.639C520.83 386.457 520.907 386.25 520.95 386.017L522.816 386.026C522.768 386.426 522.647 386.812 522.454 387.185C522.264 387.554 522.007 387.885 521.683 388.178C521.362 388.467 520.978 388.697 520.532 388.868C520.089 389.036 519.588 389.119 519.028 389.119C518.249 389.119 517.553 388.943 516.94 388.591C516.329 388.239 515.846 387.729 515.491 387.061C515.139 386.393 514.963 385.585 514.963 384.636C514.963 383.685 515.142 382.875 515.499 382.207C515.857 381.54 516.343 381.031 516.957 380.682C517.57 380.33 518.261 380.153 519.028 380.153C519.534 380.153 520.002 380.224 520.434 380.366C520.869 380.509 521.254 380.716 521.589 380.989C521.924 381.259 522.197 381.589 522.407 381.982C522.62 382.374 522.757 382.822 522.816 383.328ZM527.063 389.128C526.401 389.128 525.828 388.987 525.345 388.706C524.865 388.422 524.494 388.027 524.233 387.521C523.972 387.013 523.841 386.423 523.841 385.753C523.841 385.077 523.972 384.486 524.233 383.98C524.494 383.472 524.865 383.077 525.345 382.795C525.828 382.511 526.401 382.369 527.063 382.369C527.725 382.369 528.296 382.511 528.776 382.795C529.259 383.077 529.631 383.472 529.892 383.98C530.154 384.486 530.284 385.077 530.284 385.753C530.284 386.423 530.154 387.013 529.892 387.521C529.631 388.027 529.259 388.422 528.776 388.706C528.296 388.987 527.725 389.128 527.063 389.128ZM527.071 387.722C527.372 387.722 527.624 387.636 527.825 387.466C528.027 387.293 528.179 387.057 528.281 386.759C528.387 386.46 528.439 386.121 528.439 385.74C528.439 385.359 528.387 385.02 528.281 384.722C528.179 384.423 528.027 384.187 527.825 384.014C527.624 383.841 527.372 383.754 527.071 383.754C526.767 383.754 526.512 383.841 526.304 384.014C526.1 384.187 525.945 384.423 525.84 384.722C525.737 385.02 525.686 385.359 525.686 385.74C525.686 386.121 525.737 386.46 525.84 386.759C525.945 387.057 526.1 387.293 526.304 387.466C526.512 387.636 526.767 387.722 527.071 387.722ZM533.28 385.216V389H531.465V382.455H533.195V383.609H533.271C533.416 383.229 533.659 382.928 534 382.706C534.341 382.482 534.754 382.369 535.24 382.369C535.695 382.369 536.091 382.469 536.429 382.668C536.767 382.866 537.03 383.151 537.218 383.52C537.405 383.886 537.499 384.324 537.499 384.832V389H535.683V385.156C535.686 384.756 535.584 384.443 535.377 384.219C535.169 383.991 534.884 383.878 534.52 383.878C534.276 383.878 534.06 383.93 533.872 384.036C533.688 384.141 533.543 384.294 533.438 384.496C533.335 384.695 533.283 384.935 533.28 385.216ZM540.745 385.216V389H538.93V382.455H540.66V383.609H540.736C540.881 383.229 541.124 382.928 541.465 382.706C541.806 382.482 542.219 382.369 542.705 382.369C543.16 382.369 543.556 382.469 543.894 382.668C544.232 382.866 544.495 383.151 544.682 383.52C544.87 383.886 544.964 384.324 544.964 384.832V389H543.148V385.156C543.151 384.756 543.049 384.443 542.841 384.219C542.634 383.991 542.349 383.878 541.985 383.878C541.741 383.878 541.525 383.93 541.337 384.036C541.153 384.141 541.008 384.294 540.903 384.496C540.8 384.695 540.748 384.935 540.745 385.216ZM549.377 389.128C548.704 389.128 548.124 388.991 547.639 388.719C547.156 388.443 546.784 388.054 546.522 387.551C546.261 387.045 546.13 386.447 546.13 385.757C546.13 385.084 546.261 384.493 546.522 383.984C546.784 383.476 547.151 383.08 547.626 382.795C548.103 382.511 548.663 382.369 549.305 382.369C549.737 382.369 550.139 382.439 550.511 382.578C550.886 382.714 551.213 382.92 551.491 383.196C551.772 383.472 551.991 383.818 552.147 384.236C552.303 384.651 552.382 385.136 552.382 385.693V386.192H546.855V385.067H550.673C550.673 384.805 550.616 384.574 550.502 384.372C550.389 384.17 550.231 384.013 550.029 383.899C549.83 383.783 549.599 383.724 549.335 383.724C549.059 383.724 548.815 383.788 548.602 383.916C548.392 384.041 548.227 384.21 548.107 384.423C547.988 384.634 547.927 384.868 547.924 385.126V386.196C547.924 386.52 547.984 386.8 548.103 387.036C548.225 387.271 548.397 387.453 548.619 387.581C548.84 387.709 549.103 387.773 549.407 387.773C549.609 387.773 549.794 387.744 549.961 387.688C550.129 387.631 550.272 387.545 550.392 387.432C550.511 387.318 550.602 387.179 550.664 387.014L552.343 387.125C552.258 387.528 552.083 387.881 551.819 388.182C551.558 388.48 551.22 388.713 550.805 388.881C550.393 389.045 549.917 389.128 549.377 389.128ZM556.524 389.128C555.853 389.128 555.276 388.986 554.794 388.702C554.313 388.415 553.944 388.017 553.686 387.509C553.43 387 553.302 386.415 553.302 385.753C553.302 385.082 553.431 384.494 553.69 383.989C553.951 383.48 554.322 383.084 554.802 382.8C555.282 382.513 555.853 382.369 556.515 382.369C557.086 382.369 557.586 382.473 558.015 382.68C558.444 382.888 558.784 383.179 559.034 383.554C559.284 383.929 559.421 384.369 559.447 384.875H557.734C557.686 384.548 557.558 384.286 557.35 384.087C557.146 383.885 556.877 383.784 556.545 383.784C556.264 383.784 556.018 383.861 555.808 384.014C555.6 384.165 555.438 384.385 555.322 384.675C555.205 384.964 555.147 385.315 555.147 385.727C555.147 386.145 555.204 386.5 555.318 386.793C555.434 387.085 555.597 387.308 555.808 387.462C556.018 387.615 556.264 387.692 556.545 387.692C556.752 387.692 556.938 387.649 557.103 387.564C557.271 387.479 557.409 387.355 557.517 387.193C557.627 387.028 557.7 386.831 557.734 386.601H559.447C559.419 387.101 559.282 387.541 559.038 387.922C558.796 388.3 558.463 388.595 558.036 388.808C557.61 389.021 557.106 389.128 556.524 389.128ZM564.091 382.455V383.818H560.149V382.455H564.091ZM561.044 380.886H562.859V386.989C562.859 387.156 562.885 387.287 562.936 387.381C562.987 387.472 563.058 387.536 563.149 387.572C563.243 387.609 563.351 387.628 563.473 387.628C563.558 387.628 563.643 387.621 563.729 387.607C563.814 387.589 563.879 387.577 563.925 387.568L564.21 388.919C564.119 388.947 563.991 388.98 563.827 389.017C563.662 389.057 563.461 389.081 563.226 389.089C562.788 389.107 562.405 389.048 562.075 388.915C561.748 388.781 561.494 388.574 561.312 388.293C561.131 388.011 561.041 387.656 561.044 387.227V380.886ZM565.273 389V382.455H567.089V389H565.273ZM566.185 381.611C565.915 381.611 565.684 381.521 565.491 381.342C565.3 381.161 565.205 380.943 565.205 380.69C565.205 380.44 565.3 380.226 565.491 380.047C565.684 379.865 565.915 379.774 566.185 379.774C566.455 379.774 566.685 379.865 566.876 380.047C567.069 380.226 567.165 380.44 567.165 380.69C567.165 380.943 567.069 381.161 566.876 381.342C566.685 381.521 566.455 381.611 566.185 381.611ZM571.5 389.128C570.838 389.128 570.266 388.987 569.783 388.706C569.303 388.422 568.932 388.027 568.671 387.521C568.409 387.013 568.279 386.423 568.279 385.753C568.279 385.077 568.409 384.486 568.671 383.98C568.932 383.472 569.303 383.077 569.783 382.795C570.266 382.511 570.838 382.369 571.5 382.369C572.162 382.369 572.733 382.511 573.213 382.795C573.696 383.077 574.068 383.472 574.33 383.98C574.591 384.486 574.722 385.077 574.722 385.753C574.722 386.423 574.591 387.013 574.33 387.521C574.068 388.027 573.696 388.422 573.213 388.706C572.733 388.987 572.162 389.128 571.5 389.128ZM571.509 387.722C571.81 387.722 572.061 387.636 572.263 387.466C572.465 387.293 572.617 387.057 572.719 386.759C572.824 386.46 572.877 386.121 572.877 385.74C572.877 385.359 572.824 385.02 572.719 384.722C572.617 384.423 572.465 384.187 572.263 384.014C572.061 383.841 571.81 383.754 571.509 383.754C571.205 383.754 570.949 383.841 570.742 384.014C570.537 384.187 570.382 384.423 570.277 384.722C570.175 385.02 570.124 385.359 570.124 385.74C570.124 386.121 570.175 386.46 570.277 386.759C570.382 387.057 570.537 387.293 570.742 387.466C570.949 387.636 571.205 387.722 571.509 387.722ZM577.718 385.216V389H575.902V382.455H577.632V383.609H577.709C577.854 383.229 578.097 382.928 578.438 382.706C578.779 382.482 579.192 382.369 579.678 382.369C580.132 382.369 580.529 382.469 580.867 382.668C581.205 382.866 581.468 383.151 581.655 383.52C581.843 383.886 581.936 384.324 581.936 384.832V389H580.121V385.156C580.124 384.756 580.021 384.443 579.814 384.219C579.607 383.991 579.321 383.878 578.958 383.878C578.713 383.878 578.497 383.93 578.31 384.036C578.125 384.141 577.98 384.294 577.875 384.496C577.773 384.695 577.72 384.935 577.718 385.216Z" fill="white"/>
</g>
</g>
<g id="speed-indicator-wrapper">
<rect id="Rectangle 45" x="783" y="167" width="212" height="114" rx="8" fill="black"/>
<path id="Speed" d="M875.778 262.783C875.744 262.439 875.598 262.172 875.339 261.982C875.081 261.791 874.73 261.696 874.287 261.696C873.985 261.696 873.731 261.739 873.524 261.824C873.316 261.906 873.157 262.021 873.047 262.169C872.939 262.317 872.885 262.484 872.885 262.672C872.879 262.828 872.912 262.964 872.983 263.081C873.056 263.197 873.157 263.298 873.285 263.384C873.413 263.466 873.561 263.538 873.728 263.601C873.896 263.661 874.075 263.712 874.265 263.754L875.049 263.942C875.43 264.027 875.779 264.141 876.098 264.283C876.416 264.425 876.691 264.599 876.924 264.807C877.157 265.014 877.338 265.259 877.466 265.54C877.596 265.821 877.663 266.143 877.666 266.507C877.663 267.041 877.527 267.504 877.257 267.896C876.99 268.286 876.603 268.588 876.098 268.804C875.595 269.017 874.988 269.124 874.278 269.124C873.574 269.124 872.96 269.016 872.437 268.8C871.917 268.584 871.511 268.264 871.218 267.841C870.929 267.415 870.777 266.888 870.762 266.26H872.548C872.568 266.553 872.652 266.797 872.799 266.993C872.95 267.186 873.15 267.332 873.4 267.432C873.653 267.528 873.939 267.577 874.257 267.577C874.569 267.577 874.841 267.531 875.071 267.44C875.304 267.349 875.484 267.223 875.612 267.061C875.74 266.899 875.804 266.713 875.804 266.503C875.804 266.307 875.745 266.142 875.629 266.009C875.515 265.875 875.348 265.761 875.126 265.668C874.907 265.574 874.639 265.489 874.321 265.412L873.37 265.173C872.635 264.994 872.054 264.714 871.627 264.334C871.201 263.953 870.99 263.44 870.993 262.795C870.99 262.267 871.13 261.805 871.414 261.411C871.701 261.016 872.095 260.707 872.595 260.486C873.095 260.264 873.663 260.153 874.299 260.153C874.947 260.153 875.512 260.264 875.995 260.486C876.481 260.707 876.859 261.016 877.129 261.411C877.399 261.805 877.538 262.263 877.547 262.783H875.778ZM878.873 271.455V262.455H880.663V263.554H880.744C880.823 263.378 880.938 263.199 881.089 263.017C881.242 262.832 881.441 262.679 881.685 262.557C881.933 262.432 882.239 262.369 882.606 262.369C883.083 262.369 883.523 262.494 883.927 262.744C884.33 262.991 884.653 263.365 884.894 263.865C885.136 264.362 885.256 264.986 885.256 265.736C885.256 266.466 885.138 267.082 884.903 267.585C884.67 268.085 884.352 268.464 883.948 268.723C883.548 268.979 883.099 269.107 882.602 269.107C882.249 269.107 881.95 269.048 881.702 268.932C881.458 268.815 881.258 268.669 881.102 268.493C880.945 268.314 880.826 268.134 880.744 267.952H880.688V271.455H878.873ZM880.65 265.727C880.65 266.116 880.704 266.456 880.812 266.746C880.92 267.036 881.076 267.261 881.281 267.423C881.485 267.582 881.734 267.662 882.026 267.662C882.322 267.662 882.572 267.581 882.776 267.419C882.981 267.254 883.136 267.027 883.241 266.737C883.349 266.445 883.403 266.108 883.403 265.727C883.403 265.349 883.35 265.017 883.245 264.73C883.14 264.443 882.985 264.219 882.781 264.057C882.576 263.895 882.325 263.814 882.026 263.814C881.731 263.814 881.481 263.892 881.276 264.048C881.075 264.205 880.92 264.426 880.812 264.713C880.704 265 880.65 265.338 880.65 265.727ZM889.45 269.128C888.776 269.128 888.197 268.991 887.711 268.719C887.228 268.443 886.856 268.054 886.594 267.551C886.333 267.045 886.202 266.447 886.202 265.757C886.202 265.084 886.333 264.493 886.594 263.984C886.856 263.476 887.224 263.08 887.698 262.795C888.175 262.511 888.735 262.369 889.377 262.369C889.809 262.369 890.211 262.439 890.583 262.578C890.958 262.714 891.285 262.92 891.563 263.196C891.844 263.472 892.063 263.818 892.219 264.236C892.376 264.651 892.454 265.136 892.454 265.693V266.192H886.927V265.067H890.745C890.745 264.805 890.688 264.574 890.575 264.372C890.461 264.17 890.303 264.013 890.102 263.899C889.903 263.783 889.671 263.724 889.407 263.724C889.131 263.724 888.887 263.788 888.674 263.916C888.464 264.041 888.299 264.21 888.18 264.423C888.06 264.634 887.999 264.868 887.996 265.126V266.196C887.996 266.52 888.056 266.8 888.175 267.036C888.298 267.271 888.469 267.453 888.691 267.581C888.913 267.709 889.175 267.773 889.479 267.773C889.681 267.773 889.866 267.744 890.033 267.688C890.201 267.631 890.344 267.545 890.464 267.432C890.583 267.318 890.674 267.179 890.737 267.014L892.415 267.125C892.33 267.528 892.156 267.881 891.891 268.182C891.63 268.48 891.292 268.713 890.877 268.881C890.465 269.045 889.989 269.128 889.45 269.128ZM896.621 269.128C895.948 269.128 895.369 268.991 894.883 268.719C894.4 268.443 894.028 268.054 893.766 267.551C893.505 267.045 893.374 266.447 893.374 265.757C893.374 265.084 893.505 264.493 893.766 263.984C894.028 263.476 894.396 263.08 894.87 262.795C895.347 262.511 895.907 262.369 896.549 262.369C896.981 262.369 897.383 262.439 897.755 262.578C898.13 262.714 898.457 262.92 898.735 263.196C899.016 263.472 899.235 263.818 899.391 264.236C899.548 264.651 899.626 265.136 899.626 265.693V266.192H894.099V265.067H897.917C897.917 264.805 897.86 264.574 897.746 264.372C897.633 264.17 897.475 264.013 897.273 263.899C897.075 263.783 896.843 263.724 896.579 263.724C896.303 263.724 896.059 263.788 895.846 263.916C895.636 264.041 895.471 264.21 895.352 264.423C895.232 264.634 895.171 264.868 895.168 265.126V266.196C895.168 266.52 895.228 266.8 895.347 267.036C895.469 267.271 895.641 267.453 895.863 267.581C896.085 267.709 896.347 267.773 896.651 267.773C896.853 267.773 897.038 267.744 897.205 267.688C897.373 267.631 897.516 267.545 897.636 267.432C897.755 267.318 897.846 267.179 897.908 267.014L899.587 267.125C899.502 267.528 899.327 267.881 899.063 268.182C898.802 268.48 898.464 268.713 898.049 268.881C897.637 269.045 897.161 269.128 896.621 269.128ZM903.222 269.107C902.725 269.107 902.275 268.979 901.871 268.723C901.471 268.464 901.153 268.085 900.917 267.585C900.684 267.082 900.567 266.466 900.567 265.736C900.567 264.986 900.688 264.362 900.93 263.865C901.171 263.365 901.492 262.991 901.893 262.744C902.296 262.494 902.738 262.369 903.218 262.369C903.585 262.369 903.89 262.432 904.134 262.557C904.381 262.679 904.58 262.832 904.731 263.017C904.884 263.199 905.001 263.378 905.08 263.554H905.136V260.273H906.947V269H905.157V267.952H905.08C904.995 268.134 904.874 268.314 904.718 268.493C904.565 268.669 904.364 268.815 904.117 268.932C903.873 269.048 903.575 269.107 903.222 269.107ZM903.798 267.662C904.09 267.662 904.337 267.582 904.539 267.423C904.744 267.261 904.9 267.036 905.008 266.746C905.119 266.456 905.174 266.116 905.174 265.727C905.174 265.338 905.12 265 905.012 264.713C904.904 264.426 904.748 264.205 904.543 264.048C904.339 263.892 904.09 263.814 903.798 263.814C903.499 263.814 903.248 263.895 903.043 264.057C902.839 264.219 902.684 264.443 902.579 264.73C902.474 265.017 902.421 265.349 902.421 265.727C902.421 266.108 902.474 266.445 902.579 266.737C902.687 267.027 902.842 267.254 903.043 267.419C903.248 267.581 903.499 267.662 903.798 267.662Z" fill="white"/>
<path id="speed-value" d="M852.725 213.563L849.809 210.782V204.14L852.725 201.494V213.563ZM852.644 188.48V200.549L849.728 197.93V191.261L852.644 188.48ZM861.387 214.751L864.168 211.835H870.837L873.456 214.751H861.387ZM860.577 201.494L863.493 204.302V210.917L860.577 213.563V201.494ZM863.709 202.466C863.079 201.962 862.44 201.467 861.792 200.981L863.709 199.55H871.08L872.97 200.981L871.08 202.466H863.709ZM861.36 187.319H873.429L870.756 190.235H864.141L861.36 187.319ZM874.239 188.48V200.549L871.323 197.93V191.261L874.239 188.48ZM883.063 214.751L885.79 211.835H892.486L895.105 214.751H883.063ZM895.942 213.563L893.053 210.782V204.14L895.942 201.494V213.563ZM885.331 202.466C884.719 201.962 884.089 201.467 883.441 200.981L885.331 199.55H892.702L894.592 200.981L892.702 202.466H885.331ZM882.982 187.319H895.078L892.432 190.235H885.763L882.982 187.319ZM895.861 188.48V200.549L892.972 197.93V191.261L895.861 188.48ZM917.509 213.563L914.593 210.782V204.14L917.509 201.494V213.563ZM906.898 202.466C906.268 201.962 905.629 201.467 904.981 200.981L906.898 199.55H914.269L916.159 200.981L914.269 202.466H906.898ZM903.685 200.549V188.48L906.601 191.099V197.795L903.685 200.549ZM917.428 188.48V200.549L914.512 197.93V191.261L917.428 188.48ZM926.171 214.751L928.952 211.835H935.621L938.24 214.751H926.171ZM939.104 213.563L936.188 210.782V204.14L939.104 201.494V213.563ZM928.493 202.466C927.863 201.962 927.224 201.467 926.576 200.981L928.493 199.55H935.864L937.754 200.981L935.864 202.466H928.493ZM926.144 187.319H938.213L935.54 190.235H928.925L926.144 187.319ZM925.28 200.549V188.48L928.196 191.099V197.795L925.28 200.549Z" fill="#05FF00"/>
</g>
<g id="speed-indicator-wrapper_2">
<rect id="Rectangle 45_2" x="783" y="287" width="212" height="114" rx="8" fill="black"/>
<path id="Altitude" d="M867.708 389H865.731L868.744 380.273H871.121L874.13 389H872.153L869.967 382.267H869.898L867.708 389ZM867.585 385.57H872.255V387.01H867.585V385.57ZM876.962 380.273V389H875.146V380.273H876.962ZM881.897 382.455V383.818H877.956V382.455H881.897ZM878.85 380.886H880.666V386.989C880.666 387.156 880.691 387.287 880.743 387.381C880.794 387.472 880.865 387.536 880.956 387.572C881.049 387.609 881.157 387.628 881.279 387.628C881.365 387.628 881.45 387.621 881.535 387.607C881.62 387.589 881.686 387.577 881.731 387.568L882.017 388.919C881.926 388.947 881.798 388.98 881.633 389.017C881.468 389.057 881.268 389.081 881.032 389.089C880.595 389.107 880.211 389.048 879.882 388.915C879.555 388.781 879.301 388.574 879.119 388.293C878.937 388.011 878.848 387.656 878.85 387.227V380.886ZM883.08 389V382.455H884.895V389H883.08ZM883.992 381.611C883.722 381.611 883.49 381.521 883.297 381.342C883.107 381.161 883.012 380.943 883.012 380.69C883.012 380.44 883.107 380.226 883.297 380.047C883.49 379.865 883.722 379.774 883.992 379.774C884.262 379.774 884.492 379.865 884.682 380.047C884.875 380.226 884.972 380.44 884.972 380.69C884.972 380.943 884.875 381.161 884.682 381.342C884.492 381.521 884.262 381.611 883.992 381.611ZM889.831 382.455V383.818H885.889V382.455H889.831ZM886.784 380.886H888.599V386.989C888.599 387.156 888.625 387.287 888.676 387.381C888.727 387.472 888.798 387.536 888.889 387.572C888.983 387.609 889.091 387.628 889.213 387.628C889.298 387.628 889.384 387.621 889.469 387.607C889.554 387.589 889.619 387.577 889.665 387.568L889.95 388.919C889.859 388.947 889.732 388.98 889.567 389.017C889.402 389.057 889.202 389.081 888.966 389.089C888.528 389.107 888.145 389.048 887.815 388.915C887.489 388.781 887.234 388.574 887.053 388.293C886.871 388.011 886.781 387.656 886.784 387.227V380.886ZM895.211 386.213V382.455H897.026V389H895.283V387.811H895.215C895.067 388.195 894.822 388.503 894.478 388.736C894.137 388.969 893.721 389.085 893.229 389.085C892.792 389.085 892.407 388.986 892.075 388.787C891.742 388.588 891.482 388.305 891.295 387.939C891.11 387.572 891.016 387.134 891.013 386.622V382.455H892.829V386.298C892.832 386.685 892.935 386.99 893.14 387.214C893.344 387.439 893.619 387.551 893.962 387.551C894.181 387.551 894.386 387.501 894.576 387.402C894.766 387.3 894.92 387.149 895.036 386.95C895.156 386.751 895.214 386.506 895.211 386.213ZM900.89 389.107C900.393 389.107 899.943 388.979 899.539 388.723C899.139 388.464 898.821 388.085 898.585 387.585C898.352 387.082 898.235 386.466 898.235 385.736C898.235 384.986 898.356 384.362 898.598 383.865C898.839 383.365 899.16 382.991 899.561 382.744C899.964 382.494 900.406 382.369 900.886 382.369C901.252 382.369 901.558 382.432 901.802 382.557C902.049 382.679 902.248 382.832 902.399 383.017C902.552 383.199 902.669 383.378 902.748 383.554H902.804V380.273H904.615V389H902.825V387.952H902.748C902.663 388.134 902.542 388.314 902.386 388.493C902.233 388.669 902.032 388.815 901.785 388.932C901.541 389.048 901.243 389.107 900.89 389.107ZM901.466 387.662C901.758 387.662 902.005 387.582 902.207 387.423C902.412 387.261 902.568 387.036 902.676 386.746C902.787 386.456 902.842 386.116 902.842 385.727C902.842 385.338 902.788 385 902.68 384.713C902.572 384.426 902.416 384.205 902.211 384.048C902.007 383.892 901.758 383.814 901.466 383.814C901.167 383.814 900.916 383.895 900.711 384.057C900.507 384.219 900.352 384.443 900.247 384.73C900.142 385.017 900.089 385.349 900.089 385.727C900.089 386.108 900.142 386.445 900.247 386.737C900.355 387.027 900.51 387.254 900.711 387.419C900.916 387.581 901.167 387.662 901.466 387.662ZM909.09 389.128C908.417 389.128 907.837 388.991 907.352 388.719C906.869 388.443 906.496 388.054 906.235 387.551C905.974 387.045 905.843 386.447 905.843 385.757C905.843 385.084 905.974 384.493 906.235 383.984C906.496 383.476 906.864 383.08 907.339 382.795C907.816 382.511 908.376 382.369 909.018 382.369C909.45 382.369 909.852 382.439 910.224 382.578C910.599 382.714 910.925 382.92 911.204 383.196C911.485 383.472 911.704 383.818 911.86 384.236C912.016 384.651 912.094 385.136 912.094 385.693V386.192H906.567V385.067H910.386C910.386 384.805 910.329 384.574 910.215 384.372C910.102 384.17 909.944 384.013 909.742 383.899C909.543 383.783 909.312 383.724 909.048 383.724C908.772 383.724 908.528 383.788 908.315 383.916C908.104 384.041 907.94 384.21 907.82 384.423C907.701 384.634 907.64 384.868 907.637 385.126V386.196C907.637 386.52 907.697 386.8 907.816 387.036C907.938 387.271 908.11 387.453 908.332 387.581C908.553 387.709 908.816 387.773 909.12 387.773C909.322 387.773 909.506 387.744 909.674 387.688C909.842 387.631 909.985 387.545 910.104 387.432C910.224 387.318 910.315 387.179 910.377 387.014L912.056 387.125C911.971 387.528 911.796 387.881 911.532 388.182C911.271 388.48 910.933 388.713 910.518 388.881C910.106 389.045 909.63 389.128 909.09 389.128Z" fill="white"/>
<path id="speed-value_2" d="M852.725 333.563L849.809 330.782V324.14L852.725 321.494V333.563ZM852.644 308.48V320.549L849.728 317.93V311.261L852.644 308.48ZM861.387 334.751L864.168 331.835H870.837L873.456 334.751H861.387ZM860.577 321.494L863.493 324.302V330.917L860.577 333.563V321.494ZM863.709 322.466C863.079 321.962 862.44 321.467 861.792 320.981L863.709 319.55H871.08L872.97 320.981L871.08 322.466H863.709ZM861.36 307.319H873.429L870.756 310.235H864.141L861.36 307.319ZM874.239 308.48V320.549L871.323 317.93V311.261L874.239 308.48ZM883.063 334.751L885.79 331.835H892.486L895.105 334.751H883.063ZM895.942 333.563L893.053 330.782V324.14L895.942 321.494V333.563ZM885.331 322.466C884.719 321.962 884.089 321.467 883.441 320.981L885.331 319.55H892.702L894.592 320.981L892.702 322.466H885.331ZM882.982 307.319H895.078L892.432 310.235H885.763L882.982 307.319ZM895.861 308.48V320.549L892.972 317.93V311.261L895.861 308.48ZM917.509 333.563L914.593 330.782V324.14L917.509 321.494V333.563ZM906.898 322.466C906.268 321.962 905.629 321.467 904.981 320.981L906.898 319.55H914.269L916.159 320.981L914.269 322.466H906.898ZM903.685 320.549V308.48L906.601 311.099V317.795L903.685 320.549ZM917.428 308.48V320.549L914.512 317.93V311.261L917.428 308.48ZM926.171 334.751L928.952 331.835H935.621L938.24 334.751H926.171ZM939.104 333.563L936.188 330.782V324.14L939.104 321.494V333.563ZM928.493 322.466C927.863 321.962 927.224 321.467 926.576 320.981L928.493 319.55H935.864L937.754 320.981L935.864 322.466H928.493ZM926.144 307.319H938.213L935.54 310.235H928.925L926.144 307.319ZM925.28 320.549V308.48L928.196 311.099V317.795L925.28 320.549Z" fill="#05FF00"/>
</g>
<g id="tof-indicator-wrapper">
<rect id="Rectangle 46" x="783" y="47" width="212" height="114" rx="8" fill="black"/>
<path id="Temprature (celcius)" d="M828.473 141.794V140.273H835.641V141.794H832.969V149H831.145V141.794H828.473ZM838.821 149.128C838.147 149.128 837.568 148.991 837.082 148.719C836.599 148.443 836.227 148.054 835.966 147.551C835.704 147.045 835.574 146.447 835.574 145.757C835.574 145.084 835.704 144.493 835.966 143.984C836.227 143.476 836.595 143.08 837.069 142.795C837.547 142.511 838.106 142.369 838.748 142.369C839.18 142.369 839.582 142.439 839.954 142.578C840.329 142.714 840.656 142.92 840.934 143.196C841.216 143.472 841.434 143.818 841.591 144.236C841.747 144.651 841.825 145.136 841.825 145.693V146.192H836.298V145.067H840.116C840.116 144.805 840.059 144.574 839.946 144.372C839.832 144.17 839.674 144.013 839.473 143.899C839.274 143.783 839.042 143.724 838.778 143.724C838.502 143.724 838.258 143.788 838.045 143.916C837.835 144.041 837.67 144.21 837.551 144.423C837.431 144.634 837.37 144.868 837.368 145.126V146.196C837.368 146.52 837.427 146.8 837.547 147.036C837.669 147.271 837.841 147.453 838.062 147.581C838.284 147.709 838.547 147.773 838.85 147.773C839.052 147.773 839.237 147.744 839.404 147.688C839.572 147.631 839.716 147.545 839.835 147.432C839.954 147.318 840.045 147.179 840.108 147.014L841.787 147.125C841.701 147.528 841.527 147.881 841.262 148.182C841.001 148.48 840.663 148.713 840.248 148.881C839.836 149.045 839.36 149.128 838.821 149.128ZM843.01 149V142.455H844.74V143.609H844.816C844.953 143.226 845.18 142.923 845.498 142.702C845.816 142.48 846.197 142.369 846.64 142.369C847.089 142.369 847.471 142.482 847.787 142.706C848.102 142.928 848.312 143.229 848.417 143.609H848.485C848.619 143.234 848.86 142.935 849.21 142.71C849.562 142.483 849.978 142.369 850.458 142.369C851.069 142.369 851.565 142.564 851.946 142.953C852.329 143.339 852.521 143.888 852.521 144.598V149H850.71V144.956C850.71 144.592 850.613 144.32 850.42 144.138C850.227 143.956 849.985 143.865 849.696 143.865C849.366 143.865 849.109 143.97 848.924 144.18C848.74 144.388 848.647 144.662 848.647 145.003V149H846.887V144.918C846.887 144.597 846.795 144.341 846.61 144.151C846.429 143.96 846.189 143.865 845.89 143.865C845.689 143.865 845.507 143.916 845.345 144.018C845.186 144.118 845.059 144.259 844.966 144.44C844.872 144.619 844.825 144.83 844.825 145.071V149H843.01ZM853.955 151.455V142.455H855.745V143.554H855.826C855.905 143.378 856.02 143.199 856.171 143.017C856.324 142.832 856.523 142.679 856.767 142.557C857.015 142.432 857.321 142.369 857.688 142.369C858.165 142.369 858.605 142.494 859.009 142.744C859.412 142.991 859.735 143.365 859.976 143.865C860.218 144.362 860.338 144.986 860.338 145.736C860.338 146.466 860.221 147.082 859.985 147.585C859.752 148.085 859.434 148.464 859.03 148.723C858.63 148.979 858.181 149.107 857.684 149.107C857.331 149.107 857.032 149.048 856.784 148.932C856.54 148.815 856.34 148.669 856.184 148.493C856.027 148.314 855.908 148.134 855.826 147.952H855.77V151.455H853.955ZM855.732 145.727C855.732 146.116 855.786 146.456 855.894 146.746C856.002 147.036 856.158 147.261 856.363 147.423C856.567 147.582 856.816 147.662 857.108 147.662C857.404 147.662 857.654 147.581 857.858 147.419C858.063 147.254 858.218 147.027 858.323 146.737C858.431 146.445 858.485 146.108 858.485 145.727C858.485 145.349 858.432 145.017 858.327 144.73C858.222 144.443 858.067 144.219 857.863 144.057C857.658 143.895 857.407 143.814 857.108 143.814C856.813 143.814 856.563 143.892 856.358 144.048C856.157 144.205 856.002 144.426 855.894 144.713C855.786 145 855.732 145.338 855.732 145.727ZM861.549 149V142.455H863.309V143.597H863.377C863.496 143.19 863.696 142.884 863.978 142.676C864.259 142.466 864.583 142.361 864.949 142.361C865.04 142.361 865.138 142.366 865.243 142.378C865.348 142.389 865.441 142.405 865.52 142.425V144.036C865.435 144.01 865.317 143.987 865.167 143.967C865.016 143.947 864.878 143.938 864.753 143.938C864.486 143.938 864.248 143.996 864.037 144.112C863.83 144.226 863.665 144.385 863.543 144.589C863.424 144.794 863.364 145.03 863.364 145.297V149H861.549ZM868.138 149.124C867.72 149.124 867.348 149.051 867.021 148.906C866.695 148.759 866.436 148.541 866.246 148.254C866.058 147.964 865.964 147.604 865.964 147.172C865.964 146.808 866.031 146.503 866.165 146.256C866.298 146.009 866.48 145.81 866.71 145.659C866.94 145.509 867.202 145.395 867.494 145.318C867.79 145.241 868.099 145.188 868.423 145.156C868.804 145.116 869.111 145.08 869.344 145.045C869.577 145.009 869.746 144.955 869.851 144.884C869.956 144.812 870.009 144.707 870.009 144.568V144.543C870.009 144.273 869.923 144.064 869.753 143.916C869.585 143.768 869.347 143.695 869.037 143.695C868.71 143.695 868.45 143.767 868.257 143.912C868.064 144.054 867.936 144.233 867.874 144.449L866.195 144.312C866.28 143.915 866.447 143.571 866.697 143.281C866.947 142.989 867.27 142.764 867.665 142.608C868.063 142.449 868.523 142.369 869.045 142.369C869.409 142.369 869.757 142.412 870.089 142.497C870.425 142.582 870.722 142.714 870.98 142.893C871.241 143.072 871.447 143.303 871.598 143.584C871.749 143.862 871.824 144.196 871.824 144.585V149H870.102V148.092H870.051C869.946 148.297 869.805 148.477 869.629 148.634C869.453 148.787 869.241 148.908 868.994 148.996C868.747 149.081 868.462 149.124 868.138 149.124ZM868.658 147.871C868.925 147.871 869.161 147.818 869.365 147.713C869.57 147.605 869.73 147.46 869.847 147.278C869.963 147.097 870.021 146.891 870.021 146.661V145.966C869.964 146.003 869.886 146.037 869.787 146.068C869.69 146.097 869.581 146.124 869.459 146.149C869.337 146.172 869.214 146.193 869.092 146.213C868.97 146.23 868.859 146.246 868.76 146.26C868.547 146.291 868.361 146.341 868.202 146.409C868.043 146.477 867.919 146.57 867.831 146.686C867.743 146.8 867.699 146.942 867.699 147.112C867.699 147.359 867.788 147.548 867.967 147.679C868.149 147.807 868.379 147.871 868.658 147.871ZM876.714 142.455V143.818H872.772V142.455H876.714ZM873.667 140.886H875.482V146.989C875.482 147.156 875.508 147.287 875.559 147.381C875.61 147.472 875.681 147.536 875.772 147.572C875.866 147.609 875.974 147.628 876.096 147.628C876.181 147.628 876.266 147.621 876.352 147.607C876.437 147.589 876.502 147.577 876.548 147.568L876.833 148.919C876.742 148.947 876.614 148.98 876.45 149.017C876.285 149.057 876.085 149.081 875.849 149.089C875.411 149.107 875.028 149.048 874.698 148.915C874.371 148.781 874.117 148.574 873.935 148.293C873.754 148.011 873.664 147.656 873.667 147.227V140.886ZM882.094 146.213V142.455H883.909V149H882.166V147.811H882.098C881.95 148.195 881.705 148.503 881.361 148.736C881.02 148.969 880.604 149.085 880.112 149.085C879.675 149.085 879.29 148.986 878.957 148.787C878.625 148.588 878.365 148.305 878.178 147.939C877.993 147.572 877.899 147.134 877.896 146.622V142.455H879.712V146.298C879.714 146.685 879.818 146.99 880.023 147.214C880.227 147.439 880.501 147.551 880.845 147.551C881.064 147.551 881.268 147.501 881.459 147.402C881.649 147.3 881.803 147.149 881.919 146.95C882.038 146.751 882.097 146.506 882.094 146.213ZM885.361 149V142.455H887.121V143.597H887.189C887.309 143.19 887.509 142.884 887.79 142.676C888.071 142.466 888.395 142.361 888.762 142.361C888.853 142.361 888.951 142.366 889.056 142.378C889.161 142.389 889.253 142.405 889.333 142.425V144.036C889.248 144.01 889.13 143.987 888.979 143.967C888.828 143.947 888.691 143.938 888.566 143.938C888.299 143.938 888.06 143.996 887.85 144.112C887.642 144.226 887.478 144.385 887.355 144.589C887.236 144.794 887.176 145.03 887.176 145.297V149H885.361ZM892.95 149.128C892.276 149.128 891.697 148.991 891.211 148.719C890.728 148.443 890.356 148.054 890.094 147.551C889.833 147.045 889.702 146.447 889.702 145.757C889.702 145.084 889.833 144.493 890.094 143.984C890.356 143.476 890.724 143.08 891.198 142.795C891.675 142.511 892.235 142.369 892.877 142.369C893.309 142.369 893.711 142.439 894.083 142.578C894.458 142.714 894.785 142.92 895.063 143.196C895.344 143.472 895.563 143.818 895.719 144.236C895.876 144.651 895.954 145.136 895.954 145.693V146.192H890.427V145.067H894.245C894.245 144.805 894.188 144.574 894.075 144.372C893.961 144.17 893.803 144.013 893.602 143.899C893.403 143.783 893.171 143.724 892.907 143.724C892.631 143.724 892.387 143.788 892.174 143.916C891.964 144.041 891.799 144.21 891.68 144.423C891.56 144.634 891.499 144.868 891.496 145.126V146.196C891.496 146.52 891.556 146.8 891.675 147.036C891.798 147.271 891.969 147.453 892.191 147.581C892.413 147.709 892.675 147.773 892.979 147.773C893.181 147.773 893.366 147.744 893.533 147.688C893.701 147.631 893.844 147.545 893.964 147.432C894.083 147.318 894.174 147.179 894.237 147.014L895.915 147.125C895.83 147.528 895.656 147.881 895.391 148.182C895.13 148.48 894.792 148.713 894.377 148.881C893.965 149.045 893.489 149.128 892.95 149.128ZM900.316 145.501C900.316 144.445 900.457 143.472 900.738 142.582C901.022 141.693 901.456 140.869 902.038 140.111H903.772C903.551 140.392 903.345 140.736 903.154 141.142C902.964 141.545 902.798 141.989 902.656 142.472C902.514 142.955 902.403 143.455 902.324 143.972C902.244 144.486 902.204 144.996 902.204 145.501C902.204 146.175 902.272 146.855 902.409 147.543C902.548 148.227 902.735 148.864 902.971 149.452C903.21 150.04 903.477 150.521 903.772 150.896H902.038C901.456 150.138 901.022 149.314 900.738 148.425C900.457 147.536 900.316 146.561 900.316 145.501ZM907.725 149.128C907.054 149.128 906.478 148.986 905.995 148.702C905.515 148.415 905.145 148.017 904.887 147.509C904.631 147 904.503 146.415 904.503 145.753C904.503 145.082 904.632 144.494 904.891 143.989C905.152 143.48 905.523 143.084 906.003 142.8C906.483 142.513 907.054 142.369 907.716 142.369C908.287 142.369 908.787 142.473 909.216 142.68C909.645 142.888 909.985 143.179 910.235 143.554C910.485 143.929 910.623 144.369 910.648 144.875H908.935C908.887 144.548 908.759 144.286 908.551 144.087C908.347 143.885 908.078 143.784 907.746 143.784C907.465 143.784 907.219 143.861 907.009 144.014C906.801 144.165 906.64 144.385 906.523 144.675C906.407 144.964 906.348 145.315 906.348 145.727C906.348 146.145 906.405 146.5 906.519 146.793C906.635 147.085 906.799 147.308 907.009 147.462C907.219 147.615 907.465 147.692 907.746 147.692C907.953 147.692 908.14 147.649 908.304 147.564C908.472 147.479 908.61 147.355 908.718 147.193C908.828 147.028 908.901 146.831 908.935 146.601H910.648C910.62 147.101 910.483 147.541 910.239 147.922C909.998 148.3 909.664 148.595 909.238 148.808C908.811 149.021 908.307 149.128 907.725 149.128ZM914.793 149.128C914.12 149.128 913.54 148.991 913.055 148.719C912.572 148.443 912.2 148.054 911.938 147.551C911.677 147.045 911.546 146.447 911.546 145.757C911.546 145.084 911.677 144.493 911.938 143.984C912.2 143.476 912.567 143.08 913.042 142.795C913.519 142.511 914.079 142.369 914.721 142.369C915.153 142.369 915.555 142.439 915.927 142.578C916.302 142.714 916.629 142.92 916.907 143.196C917.188 143.472 917.407 143.818 917.563 144.236C917.719 144.651 917.798 145.136 917.798 145.693V146.192H912.271V145.067H916.089C916.089 144.805 916.032 144.574 915.918 144.372C915.805 144.17 915.647 144.013 915.445 143.899C915.246 143.783 915.015 143.724 914.751 143.724C914.475 143.724 914.231 143.788 914.018 143.916C913.808 144.041 913.643 144.21 913.523 144.423C913.404 144.634 913.343 144.868 913.34 145.126V146.196C913.34 146.52 913.4 146.8 913.519 147.036C913.641 147.271 913.813 147.453 914.035 147.581C914.256 147.709 914.519 147.773 914.823 147.773C915.025 147.773 915.21 147.744 915.377 147.688C915.545 147.631 915.688 147.545 915.808 147.432C915.927 147.318 916.018 147.179 916.08 147.014L917.759 147.125C917.674 147.528 917.499 147.881 917.235 148.182C916.974 148.48 916.636 148.713 916.221 148.881C915.809 149.045 915.333 149.128 914.793 149.128ZM920.798 140.273V149H918.982V140.273H920.798ZM925.209 149.128C924.539 149.128 923.962 148.986 923.479 148.702C922.999 148.415 922.63 148.017 922.371 147.509C922.115 147 921.988 146.415 921.988 145.753C921.988 145.082 922.117 144.494 922.375 143.989C922.637 143.48 923.007 143.084 923.488 142.8C923.968 142.513 924.539 142.369 925.201 142.369C925.772 142.369 926.272 142.473 926.701 142.68C927.13 142.888 927.469 143.179 927.719 143.554C927.969 143.929 928.107 144.369 928.132 144.875H926.419C926.371 144.548 926.243 144.286 926.036 144.087C925.831 143.885 925.563 143.784 925.23 143.784C924.949 143.784 924.703 143.861 924.493 144.014C924.286 144.165 924.124 144.385 924.007 144.675C923.891 144.964 923.833 145.315 923.833 145.727C923.833 146.145 923.89 146.5 924.003 146.793C924.12 147.085 924.283 147.308 924.493 147.462C924.703 147.615 924.949 147.692 925.23 147.692C925.438 147.692 925.624 147.649 925.789 147.564C925.956 147.479 926.094 147.355 926.202 147.193C926.313 147.028 926.385 146.831 926.419 146.601H928.132C928.104 147.101 927.968 147.541 927.723 147.922C927.482 148.3 927.148 148.595 926.722 148.808C926.296 149.021 925.792 149.128 925.209 149.128ZM929.295 149V142.455H931.11V149H929.295ZM930.207 141.611C929.937 141.611 929.705 141.521 929.512 141.342C929.322 141.161 929.227 140.943 929.227 140.69C929.227 140.44 929.322 140.226 929.512 140.047C929.705 139.865 929.937 139.774 930.207 139.774C930.477 139.774 930.707 139.865 930.897 140.047C931.09 140.226 931.187 140.44 931.187 140.69C931.187 140.943 931.09 141.161 930.897 141.342C930.707 141.521 930.477 141.611 930.207 141.611ZM936.762 146.213V142.455H938.577V149H936.834V147.811H936.766C936.618 148.195 936.373 148.503 936.029 148.736C935.688 148.969 935.272 149.085 934.78 149.085C934.343 149.085 933.958 148.986 933.625 148.787C933.293 148.588 933.033 148.305 932.846 147.939C932.661 147.572 932.567 147.134 932.564 146.622V142.455H934.38V146.298C934.382 146.685 934.486 146.99 934.691 147.214C934.895 147.439 935.169 147.551 935.513 147.551C935.732 147.551 935.936 147.501 936.127 147.402C936.317 147.3 936.471 147.149 936.587 146.95C936.706 146.751 936.765 146.506 936.762 146.213ZM945.475 144.321L943.813 144.423C943.785 144.281 943.724 144.153 943.63 144.04C943.536 143.923 943.413 143.831 943.259 143.763C943.109 143.692 942.928 143.656 942.718 143.656C942.437 143.656 942.2 143.716 942.006 143.835C941.813 143.952 941.717 144.108 941.717 144.304C941.717 144.46 941.779 144.592 941.904 144.7C942.029 144.808 942.244 144.895 942.548 144.96L943.732 145.199C944.369 145.33 944.843 145.54 945.156 145.83C945.468 146.119 945.624 146.5 945.624 146.972C945.624 147.401 945.498 147.777 945.245 148.101C944.995 148.425 944.651 148.678 944.214 148.859C943.779 149.038 943.278 149.128 942.71 149.128C941.843 149.128 941.153 148.947 940.638 148.587C940.127 148.223 939.827 147.729 939.739 147.104L941.525 147.01C941.579 147.274 941.71 147.476 941.917 147.615C942.124 147.751 942.39 147.82 942.714 147.82C943.032 147.82 943.288 147.759 943.481 147.636C943.677 147.511 943.776 147.351 943.779 147.155C943.776 146.99 943.707 146.855 943.57 146.75C943.434 146.642 943.224 146.56 942.94 146.503L941.806 146.277C941.167 146.149 940.691 145.928 940.379 145.612C940.069 145.297 939.914 144.895 939.914 144.406C939.914 143.986 940.028 143.624 940.255 143.32C940.485 143.016 940.808 142.781 941.222 142.616C941.64 142.452 942.129 142.369 942.688 142.369C943.515 142.369 944.165 142.544 944.64 142.893C945.117 143.243 945.396 143.719 945.475 144.321ZM949.827 145.501C949.827 146.561 949.685 147.536 949.401 148.425C949.12 149.314 948.688 150.138 948.105 150.896H946.371C946.593 150.615 946.799 150.271 946.989 149.865C947.179 149.459 947.346 149.016 947.488 148.536C947.63 148.053 947.74 147.553 947.82 147.036C947.9 146.518 947.939 146.007 947.939 145.501C947.939 144.828 947.87 144.149 947.73 143.464C947.594 142.777 947.407 142.141 947.168 141.555C946.932 140.967 946.667 140.486 946.371 140.111H948.105C948.688 140.869 949.12 141.693 949.401 142.582C949.685 143.472 949.827 144.445 949.827 145.501Z" fill="white"/>
<path id="tof-value" d="M806.808 75.042L804.864 73.188V68.76L806.808 66.996V75.042ZM806.754 58.32V66.366L804.81 64.62V60.174L806.754 58.32ZM815.462 66.816H817.73V69.066H815.462V66.816ZM815.462 61.47H817.73V63.774H815.462V61.47ZM849.997 75.042L848.053 73.188V68.76L849.997 66.996V75.042ZM849.943 58.32V66.366L847.999 64.62V60.174L849.943 58.32ZM855.772 75.834L857.626 73.89H862.072L863.818 75.834H855.772ZM855.232 66.996L857.176 68.868V73.278L855.232 75.042V66.996ZM857.32 67.644C856.9 67.308 856.474 66.978 856.042 66.654L857.32 65.7H862.234L863.494 66.654L862.234 67.644H857.32ZM855.754 57.546H863.8L862.018 59.49H857.608L855.754 57.546ZM864.34 58.32V66.366L862.396 64.62V60.174L864.34 58.32ZM870.222 75.834L872.04 73.89H876.504L878.25 75.834H870.222ZM878.808 75.042L876.882 73.188V68.76L878.808 66.996V75.042ZM871.734 67.644C871.326 67.308 870.906 66.978 870.474 66.654L871.734 65.7H876.648L877.908 66.654L876.648 67.644H871.734ZM870.168 57.546H878.232L876.468 59.49H872.022L870.168 57.546ZM878.754 58.32V66.366L876.828 64.62V60.174L878.754 58.32ZM893.187 75.042L891.243 73.188V68.76L893.187 66.996V75.042ZM886.113 67.644C885.693 67.308 885.267 66.978 884.835 66.654L886.113 65.7H891.027L892.287 66.654L891.027 67.644H886.113ZM883.971 66.366V58.32L885.915 60.066V64.53L883.971 66.366ZM893.133 58.32V66.366L891.189 64.62V60.174L893.133 58.32ZM898.961 75.834L900.815 73.89H905.261L907.007 75.834H898.961ZM907.583 75.042L905.639 73.188V68.76L907.583 66.996V75.042ZM900.509 67.644C900.089 67.308 899.663 66.978 899.231 66.654L900.509 65.7H905.423L906.683 66.654L905.423 67.644H900.509ZM898.943 57.546H906.989L905.207 59.49H900.797L898.943 57.546ZM898.367 66.366V58.32L900.311 60.066V64.53L898.367 66.366ZM798.186 102.834L800.04 100.89H804.486L806.232 102.834H798.186ZM797.646 93.996L799.59 95.868V100.278L797.646 102.042V93.996ZM799.734 94.644C799.314 94.308 798.888 93.978 798.456 93.654L799.734 92.7H804.648L805.908 93.654L804.648 94.644H799.734ZM798.168 84.546H806.214L804.432 86.49H800.022L798.168 84.546ZM806.754 85.32V93.366L804.81 91.62V87.174L806.754 85.32ZM815.462 93.816H817.73V96.066H815.462V93.816ZM815.462 88.47H817.73V90.774H815.462V88.47ZM841.375 102.834L843.229 100.89H847.675L849.421 102.834H841.375ZM840.835 93.996L842.779 95.868V100.278L840.835 102.042V93.996ZM842.923 94.644C842.503 94.308 842.077 93.978 841.645 93.654L842.923 92.7H847.837L849.097 93.654L847.837 94.644H842.923ZM841.357 84.546H849.403L847.621 86.49H843.211L841.357 84.546ZM849.943 85.32V93.366L847.999 91.62V87.174L849.943 85.32ZM855.826 102.834L857.644 100.89H862.108L863.854 102.834H855.826ZM864.412 102.042L862.486 100.188V95.76L864.412 93.996V102.042ZM857.338 94.644C856.93 94.308 856.51 93.978 856.078 93.654L857.338 92.7H862.252L863.512 93.654L862.252 94.644H857.338ZM855.772 84.546H863.836L862.072 86.49H857.626L855.772 84.546ZM864.358 85.32V93.366L862.432 91.62V87.174L864.358 85.32ZM878.79 102.042L876.846 100.188V95.76L878.79 93.996V102.042ZM871.716 94.644C871.296 94.308 870.87 93.978 870.438 93.654L871.716 92.7H876.63L877.89 93.654L876.63 94.644H871.716ZM869.574 93.366V85.32L871.518 87.066V91.53L869.574 93.366ZM878.736 85.32V93.366L876.792 91.62V87.174L878.736 85.32ZM884.565 102.834L886.419 100.89H890.865L892.611 102.834H884.565ZM893.187 102.042L891.243 100.188V95.76L893.187 93.996V102.042ZM886.113 94.644C885.693 94.308 885.267 93.978 884.835 93.654L886.113 92.7H891.027L892.287 93.654L891.027 94.644H886.113ZM884.547 84.546H892.593L890.811 86.49H886.401L884.547 84.546ZM883.971 93.366V85.32L885.915 87.066V91.53L883.971 93.366ZM798.24 129.834L800.058 127.89H804.522L806.268 129.834H798.24ZM806.826 129.042L804.9 127.188V122.76L806.826 120.996V129.042ZM799.752 121.644C799.344 121.308 798.924 120.978 798.492 120.654L799.752 119.7H804.666L805.926 120.654L804.666 121.644H799.752ZM798.186 111.546H806.25L804.486 113.49H800.04L798.186 111.546ZM806.772 112.32V120.366L804.846 118.62V114.174L806.772 112.32ZM815.462 120.816H817.73V123.066H815.462V120.816ZM815.462 115.47H817.73V117.774H815.462V115.47ZM841.429 129.834L843.247 127.89H847.711L849.457 129.834H841.429ZM850.015 129.042L848.089 127.188V122.76L850.015 120.996V129.042ZM842.941 121.644C842.533 121.308 842.113 120.978 841.681 120.654L842.941 119.7H847.855L849.115 120.654L847.855 121.644H842.941ZM841.375 111.546H849.439L847.675 113.49H843.229L841.375 111.546ZM849.961 112.32V120.366L848.035 118.62V114.174L849.961 112.32ZM864.394 129.042L862.45 127.188V122.76L864.394 120.996V129.042ZM857.32 121.644C856.9 121.308 856.474 120.978 856.042 120.654L857.32 119.7H862.234L863.494 120.654L862.234 121.644H857.32ZM855.178 120.366V112.32L857.122 114.066V118.53L855.178 120.366ZM864.34 112.32V120.366L862.396 118.62V114.174L864.34 112.32ZM870.168 129.834L872.022 127.89H876.468L878.214 129.834H870.168ZM878.79 129.042L876.846 127.188V122.76L878.79 120.996V129.042ZM871.716 121.644C871.296 121.308 870.87 120.978 870.438 120.654L871.716 119.7H876.63L877.89 120.654L876.63 121.644H871.716ZM870.15 111.546H878.196L876.414 113.49H872.004L870.15 111.546ZM869.574 120.366V112.32L871.518 114.066V118.53L869.574 120.366Z" fill="#05FF00"/>
</g>
<g id="control-wrappers">
<g id="all-lock-wrapper">
<rect id="Rectangle 32" x="411" y="406" width="276" height="98" rx="8" fill="black"/>
<g id="sync-button">
<rect id="button" x="509" y="437" width="36" height="72" rx="8" transform="rotate(90 509 437)" fill="white"/>
<path id="label" d="M450.648 460H448.67L451.683 451.273H454.061L457.069 460H455.092L452.906 453.267H452.838L450.648 460ZM450.524 456.57H455.194V458.01H450.524V456.57ZM460.738 460.128C460.068 460.128 459.491 459.986 459.008 459.702C458.528 459.415 458.159 459.017 457.9 458.509C457.645 458 457.517 457.415 457.517 456.753C457.517 456.082 457.646 455.494 457.905 454.989C458.166 454.48 458.537 454.084 459.017 453.8C459.497 453.513 460.068 453.369 460.73 453.369C461.301 453.369 461.801 453.473 462.23 453.68C462.659 453.888 462.998 454.179 463.248 454.554C463.498 454.929 463.636 455.369 463.662 455.875H461.949C461.9 455.548 461.773 455.286 461.565 455.087C461.361 454.885 461.092 454.784 460.76 454.784C460.479 454.784 460.233 454.861 460.023 455.014C459.815 455.165 459.653 455.385 459.537 455.675C459.42 455.964 459.362 456.315 459.362 456.727C459.362 457.145 459.419 457.5 459.532 457.793C459.649 458.085 459.812 458.308 460.023 458.462C460.233 458.615 460.479 458.692 460.76 458.692C460.967 458.692 461.153 458.649 461.318 458.564C461.486 458.479 461.623 458.355 461.731 458.193C461.842 458.028 461.915 457.831 461.949 457.601H463.662C463.633 458.101 463.497 458.541 463.253 458.922C463.011 459.3 462.677 459.595 462.251 459.808C461.825 460.021 461.321 460.128 460.738 460.128ZM468.306 453.455V454.818H464.364V453.455H468.306ZM465.259 451.886H467.074V457.989C467.074 458.156 467.1 458.287 467.151 458.381C467.202 458.472 467.273 458.536 467.364 458.572C467.458 458.609 467.566 458.628 467.688 458.628C467.773 458.628 467.858 458.621 467.943 458.607C468.029 458.589 468.094 458.577 468.139 458.568L468.425 459.919C468.334 459.947 468.206 459.98 468.041 460.017C467.877 460.057 467.676 460.081 467.441 460.089C467.003 460.107 466.619 460.048 466.29 459.915C465.963 459.781 465.709 459.574 465.527 459.293C465.345 459.011 465.256 458.656 465.259 458.227V451.886ZM469.488 460V453.455H471.303V460H469.488ZM470.4 452.611C470.13 452.611 469.899 452.521 469.705 452.342C469.515 452.161 469.42 451.943 469.42 451.69C469.42 451.44 469.515 451.226 469.705 451.047C469.899 450.865 470.13 450.774 470.4 450.774C470.67 450.774 470.9 450.865 471.09 451.047C471.284 451.226 471.38 451.44 471.38 451.69C471.38 451.943 471.284 452.161 471.09 452.342C470.9 452.521 470.67 452.611 470.4 452.611ZM478.86 453.455L476.572 460H474.526L472.238 453.455H474.155L475.515 458.138H475.583L476.938 453.455H478.86ZM481.48 460.124C481.062 460.124 480.69 460.051 480.363 459.906C480.036 459.759 479.778 459.541 479.588 459.254C479.4 458.964 479.306 458.604 479.306 458.172C479.306 457.808 479.373 457.503 479.507 457.256C479.64 457.009 479.822 456.81 480.052 456.659C480.282 456.509 480.544 456.395 480.836 456.318C481.132 456.241 481.441 456.188 481.765 456.156C482.146 456.116 482.453 456.08 482.686 456.045C482.919 456.009 483.088 455.955 483.193 455.884C483.298 455.812 483.35 455.707 483.35 455.568V455.543C483.35 455.273 483.265 455.064 483.095 454.916C482.927 454.768 482.688 454.695 482.379 454.695C482.052 454.695 481.792 454.767 481.599 454.912C481.406 455.054 481.278 455.233 481.215 455.449L479.536 455.312C479.622 454.915 479.789 454.571 480.039 454.281C480.289 453.989 480.612 453.764 481.007 453.608C481.404 453.449 481.865 453.369 482.387 453.369C482.751 453.369 483.099 453.412 483.431 453.497C483.767 453.582 484.063 453.714 484.322 453.893C484.583 454.072 484.789 454.303 484.94 454.584C485.09 454.862 485.166 455.196 485.166 455.585V460H483.444V459.092H483.393C483.288 459.297 483.147 459.477 482.971 459.634C482.795 459.787 482.583 459.908 482.336 459.996C482.089 460.081 481.803 460.124 481.48 460.124ZM481.999 458.871C482.267 458.871 482.502 458.818 482.707 458.713C482.911 458.605 483.072 458.46 483.188 458.278C483.305 458.097 483.363 457.891 483.363 457.661V456.966C483.306 457.003 483.228 457.037 483.129 457.068C483.032 457.097 482.923 457.124 482.801 457.149C482.678 457.172 482.556 457.193 482.434 457.213C482.312 457.23 482.201 457.246 482.102 457.26C481.889 457.291 481.703 457.341 481.544 457.409C481.384 457.477 481.261 457.57 481.173 457.686C481.085 457.8 481.041 457.942 481.041 458.112C481.041 458.359 481.13 458.548 481.309 458.679C481.491 458.807 481.721 458.871 481.999 458.871ZM490.056 453.455V454.818H486.114V453.455H490.056ZM487.009 451.886H488.824V457.989C488.824 458.156 488.85 458.287 488.901 458.381C488.952 458.472 489.023 458.536 489.114 458.572C489.208 458.609 489.316 458.628 489.438 458.628C489.523 458.628 489.608 458.621 489.693 458.607C489.779 458.589 489.844 458.577 489.889 458.568L490.175 459.919C490.084 459.947 489.956 459.98 489.791 460.017C489.627 460.057 489.426 460.081 489.191 460.089C488.753 460.107 488.369 460.048 488.04 459.915C487.713 459.781 487.459 459.574 487.277 459.293C487.095 459.011 487.006 458.656 487.009 458.227V451.886ZM494.151 460.128C493.477 460.128 492.898 459.991 492.412 459.719C491.929 459.443 491.557 459.054 491.296 458.551C491.034 458.045 490.904 457.447 490.904 456.757C490.904 456.084 491.034 455.493 491.296 454.984C491.557 454.476 491.925 454.08 492.399 453.795C492.877 453.511 493.436 453.369 494.078 453.369C494.51 453.369 494.912 453.439 495.284 453.578C495.659 453.714 495.986 453.92 496.264 454.196C496.546 454.472 496.764 454.818 496.921 455.236C497.077 455.651 497.155 456.136 497.155 456.693V457.192H491.628V456.067H495.446C495.446 455.805 495.389 455.574 495.276 455.372C495.162 455.17 495.004 455.013 494.803 454.899C494.604 454.783 494.372 454.724 494.108 454.724C493.833 454.724 493.588 454.788 493.375 454.916C493.165 455.041 493 455.21 492.881 455.423C492.762 455.634 492.7 455.868 492.698 456.126V457.196C492.698 457.52 492.757 457.8 492.877 458.036C492.999 458.271 493.171 458.453 493.392 458.581C493.614 458.709 493.877 458.773 494.181 458.773C494.382 458.773 494.567 458.744 494.735 458.688C494.902 458.631 495.046 458.545 495.165 458.432C495.284 458.318 495.375 458.179 495.438 458.014L497.117 458.125C497.031 458.528 496.857 458.881 496.593 459.182C496.331 459.48 495.993 459.713 495.578 459.881C495.166 460.045 494.691 460.128 494.151 460.128Z" fill="black"/>
</g>
<g id="async-button">
<rect id="Rectangle 26" x="661" y="437" width="36" height="72" rx="8" transform="rotate(90 661 437)" fill="white"/>
<path id="Auto Pilot" d="M598.511 460H596.534L599.546 451.273H601.924L604.933 460H602.955L600.769 453.267H600.701L598.511 460ZM598.387 456.57H603.058V458.01H598.387V456.57ZM610.146 457.213V453.455H611.962V460H610.219V458.811H610.151C610.003 459.195 609.757 459.503 609.414 459.736C609.073 459.969 608.656 460.085 608.165 460.085C607.727 460.085 607.343 459.986 607.01 459.787C606.678 459.588 606.418 459.305 606.23 458.939C606.046 458.572 605.952 458.134 605.949 457.622V453.455H607.764V457.298C607.767 457.685 607.871 457.99 608.075 458.214C608.28 458.439 608.554 458.551 608.898 458.551C609.117 458.551 609.321 458.501 609.512 458.402C609.702 458.3 609.855 458.149 609.972 457.95C610.091 457.751 610.149 457.506 610.146 457.213ZM616.895 453.455V454.818H612.954V453.455H616.895ZM613.849 451.886H615.664V457.989C615.664 458.156 615.689 458.287 615.741 458.381C615.792 458.472 615.863 458.536 615.954 458.572C616.047 458.609 616.155 458.628 616.278 458.628C616.363 458.628 616.448 458.621 616.533 458.607C616.618 458.589 616.684 458.577 616.729 458.568L617.015 459.919C616.924 459.947 616.796 459.98 616.631 460.017C616.466 460.057 616.266 460.081 616.03 460.089C615.593 460.107 615.209 460.048 614.88 459.915C614.553 459.781 614.299 459.574 614.117 459.293C613.935 459.011 613.846 458.656 613.849 458.227V451.886ZM620.965 460.128C620.303 460.128 619.731 459.987 619.248 459.706C618.768 459.422 618.397 459.027 618.135 458.521C617.874 458.013 617.743 457.423 617.743 456.753C617.743 456.077 617.874 455.486 618.135 454.98C618.397 454.472 618.768 454.077 619.248 453.795C619.731 453.511 620.303 453.369 620.965 453.369C621.627 453.369 622.198 453.511 622.678 453.795C623.161 454.077 623.533 454.472 623.795 454.98C624.056 455.486 624.187 456.077 624.187 456.753C624.187 457.423 624.056 458.013 623.795 458.521C623.533 459.027 623.161 459.422 622.678 459.706C622.198 459.987 621.627 460.128 620.965 460.128ZM620.974 458.722C621.275 458.722 621.526 458.636 621.728 458.466C621.93 458.293 622.081 458.057 622.184 457.759C622.289 457.46 622.341 457.121 622.341 456.74C622.341 456.359 622.289 456.02 622.184 455.722C622.081 455.423 621.93 455.187 621.728 455.014C621.526 454.841 621.275 454.754 620.974 454.754C620.67 454.754 620.414 454.841 620.206 455.014C620.002 455.187 619.847 455.423 619.742 455.722C619.64 456.02 619.589 456.359 619.589 456.74C619.589 457.121 619.64 457.46 619.742 457.759C619.847 458.057 620.002 458.293 620.206 458.466C620.414 458.636 620.67 458.722 620.974 458.722ZM628.178 460V451.273H631.622C632.284 451.273 632.847 451.399 633.313 451.652C633.779 451.902 634.134 452.25 634.379 452.696C634.626 453.139 634.749 453.651 634.749 454.23C634.749 454.81 634.624 455.321 634.374 455.764C634.124 456.207 633.762 456.553 633.288 456.8C632.816 457.047 632.245 457.17 631.575 457.17H629.38V455.692H631.276C631.632 455.692 631.924 455.631 632.154 455.509C632.387 455.384 632.561 455.212 632.674 454.993C632.791 454.771 632.849 454.517 632.849 454.23C632.849 453.94 632.791 453.687 632.674 453.472C632.561 453.253 632.387 453.084 632.154 452.964C631.921 452.842 631.626 452.781 631.268 452.781H630.024V460H628.178ZM635.914 460V453.455H637.729V460H635.914ZM636.826 452.611C636.556 452.611 636.324 452.521 636.131 452.342C635.941 452.161 635.846 451.943 635.846 451.69C635.846 451.44 635.941 451.226 636.131 451.047C636.324 450.865 636.556 450.774 636.826 450.774C637.096 450.774 637.326 450.865 637.516 451.047C637.709 451.226 637.806 451.44 637.806 451.69C637.806 451.943 637.709 452.161 637.516 452.342C637.326 452.521 637.096 452.611 636.826 452.611ZM640.999 451.273V460H639.183V451.273H640.999ZM645.41 460.128C644.748 460.128 644.176 459.987 643.693 459.706C643.213 459.422 642.842 459.027 642.581 458.521C642.319 458.013 642.189 457.423 642.189 456.753C642.189 456.077 642.319 455.486 642.581 454.98C642.842 454.472 643.213 454.077 643.693 453.795C644.176 453.511 644.748 453.369 645.41 453.369C646.072 453.369 646.643 453.511 647.123 453.795C647.606 454.077 647.979 454.472 648.24 454.98C648.501 455.486 648.632 456.077 648.632 456.753C648.632 457.423 648.501 458.013 648.24 458.521C647.979 459.027 647.606 459.422 647.123 459.706C646.643 459.987 646.072 460.128 645.41 460.128ZM645.419 458.722C645.72 458.722 645.971 458.636 646.173 458.466C646.375 458.293 646.527 458.057 646.629 457.759C646.734 457.46 646.787 457.121 646.787 456.74C646.787 456.359 646.734 456.02 646.629 455.722C646.527 455.423 646.375 455.187 646.173 455.014C645.971 454.841 645.72 454.754 645.419 454.754C645.115 454.754 644.859 454.841 644.652 455.014C644.447 455.187 644.292 455.423 644.187 455.722C644.085 456.02 644.034 456.359 644.034 456.74C644.034 457.121 644.085 457.46 644.187 457.759C644.292 458.057 644.447 458.293 644.652 458.466C644.859 458.636 645.115 458.722 645.419 458.722ZM653.294 453.455V454.818H649.352V453.455H653.294ZM650.247 451.886H652.062V457.989C652.062 458.156 652.088 458.287 652.139 458.381C652.19 458.472 652.261 458.536 652.352 458.572C652.446 458.609 652.554 458.628 652.676 458.628C652.761 458.628 652.846 458.621 652.932 458.607C653.017 458.589 653.082 458.577 653.128 458.568L653.413 459.919C653.322 459.947 653.194 459.98 653.03 460.017C652.865 460.057 652.665 460.081 652.429 460.089C651.991 460.107 651.608 460.048 651.278 459.915C650.952 459.781 650.697 459.574 650.515 459.293C650.334 459.011 650.244 458.656 650.247 458.227V451.886Z" fill="black"/>
</g>
</g>
<g id="stop-button-wrapper">
<rect id="Rectangle 27" x="783" y="406" width="98" height="98" rx="8" fill="black"/>
<g id="stop-button">
<circle id="Ellipse 1" cx="832" cy="455" r="31" fill="#FF0000"/>
<path id="Stop" d="M823.788 452.783C823.754 452.439 823.607 452.172 823.349 451.982C823.09 451.791 822.74 451.696 822.296 451.696C821.995 451.696 821.741 451.739 821.534 451.824C821.326 451.906 821.167 452.021 821.056 452.169C820.948 452.317 820.894 452.484 820.894 452.672C820.889 452.828 820.921 452.964 820.992 453.081C821.066 453.197 821.167 453.298 821.295 453.384C821.423 453.466 821.57 453.538 821.738 453.601C821.906 453.661 822.085 453.712 822.275 453.754L823.059 453.942C823.44 454.027 823.789 454.141 824.107 454.283C824.426 454.425 824.701 454.599 824.934 454.807C825.167 455.014 825.347 455.259 825.475 455.54C825.606 455.821 825.673 456.143 825.676 456.507C825.673 457.041 825.536 457.504 825.267 457.896C824.999 458.286 824.613 458.588 824.107 458.804C823.605 459.017 822.998 459.124 822.288 459.124C821.583 459.124 820.97 459.016 820.447 458.8C819.927 458.584 819.521 458.264 819.228 457.841C818.938 457.415 818.786 456.888 818.772 456.26H820.558C820.578 456.553 820.661 456.797 820.809 456.993C820.96 457.186 821.16 457.332 821.41 457.432C821.663 457.528 821.948 457.577 822.267 457.577C822.579 457.577 822.85 457.531 823.08 457.44C823.313 457.349 823.494 457.223 823.622 457.061C823.749 456.899 823.813 456.713 823.813 456.503C823.813 456.307 823.755 456.142 823.639 456.009C823.525 455.875 823.357 455.761 823.136 455.668C822.917 455.574 822.649 455.489 822.33 455.412L821.38 455.173C820.644 454.994 820.063 454.714 819.637 454.334C819.211 453.953 818.999 453.44 819.002 452.795C818.999 452.267 819.14 451.805 819.424 451.411C819.711 451.016 820.105 450.707 820.605 450.486C821.105 450.264 821.673 450.153 822.309 450.153C822.957 450.153 823.522 450.264 824.005 450.486C824.491 450.707 824.869 451.016 825.139 451.411C825.409 451.805 825.548 452.263 825.556 452.783H823.788ZM830.364 452.455V453.818H826.422V452.455H830.364ZM827.317 450.886H829.133V456.989C829.133 457.156 829.158 457.287 829.209 457.381C829.26 457.472 829.331 457.536 829.422 457.572C829.516 457.609 829.624 457.628 829.746 457.628C829.831 457.628 829.917 457.621 830.002 457.607C830.087 457.589 830.153 457.577 830.198 457.568L830.483 458.919C830.393 458.947 830.265 458.98 830.1 459.017C829.935 459.057 829.735 459.081 829.499 459.089C829.062 459.107 828.678 459.048 828.349 458.915C828.022 458.781 827.768 458.574 827.586 458.293C827.404 458.011 827.314 457.656 827.317 457.227V450.886ZM834.434 459.128C833.772 459.128 833.199 458.987 832.716 458.706C832.236 458.422 831.866 458.027 831.604 457.521C831.343 457.013 831.212 456.423 831.212 455.753C831.212 455.077 831.343 454.486 831.604 453.98C831.866 453.472 832.236 453.077 832.716 452.795C833.199 452.511 833.772 452.369 834.434 452.369C835.096 452.369 835.667 452.511 836.147 452.795C836.63 453.077 837.002 453.472 837.263 453.98C837.525 454.486 837.655 455.077 837.655 455.753C837.655 456.423 837.525 457.013 837.263 457.521C837.002 458.027 836.63 458.422 836.147 458.706C835.667 458.987 835.096 459.128 834.434 459.128ZM834.442 457.722C834.743 457.722 834.995 457.636 835.197 457.466C835.398 457.293 835.55 457.057 835.653 456.759C835.758 456.46 835.81 456.121 835.81 455.74C835.81 455.359 835.758 455.02 835.653 454.722C835.55 454.423 835.398 454.187 835.197 454.014C834.995 453.841 834.743 453.754 834.442 453.754C834.138 453.754 833.883 453.841 833.675 454.014C833.471 454.187 833.316 454.423 833.211 454.722C833.108 455.02 833.057 455.359 833.057 455.74C833.057 456.121 833.108 456.46 833.211 456.759C833.316 457.057 833.471 457.293 833.675 457.466C833.883 457.636 834.138 457.722 834.442 457.722ZM838.836 461.455V452.455H840.626V453.554H840.706C840.786 453.378 840.901 453.199 841.052 453.017C841.205 452.832 841.404 452.679 841.648 452.557C841.895 452.432 842.202 452.369 842.569 452.369C843.046 452.369 843.486 452.494 843.89 452.744C844.293 452.991 844.616 453.365 844.857 453.865C845.099 454.362 845.219 454.986 845.219 455.736C845.219 456.466 845.101 457.082 844.866 457.585C844.633 458.085 844.314 458.464 843.911 458.723C843.51 458.979 843.062 459.107 842.564 459.107C842.212 459.107 841.912 459.048 841.665 458.932C841.421 458.815 841.221 458.669 841.064 458.493C840.908 458.314 840.789 458.134 840.706 457.952H840.651V461.455H838.836ZM840.613 455.727C840.613 456.116 840.667 456.456 840.775 456.746C840.883 457.036 841.039 457.261 841.243 457.423C841.448 457.582 841.697 457.662 841.989 457.662C842.285 457.662 842.535 457.581 842.739 457.419C842.944 457.254 843.099 457.027 843.204 456.737C843.312 456.445 843.366 456.108 843.366 455.727C843.366 455.349 843.313 455.017 843.208 454.73C843.103 454.443 842.948 454.219 842.743 454.057C842.539 453.895 842.287 453.814 841.989 453.814C841.694 453.814 841.444 453.892 841.239 454.048C841.037 454.205 840.883 454.426 840.775 454.713C840.667 455 840.613 455.338 840.613 455.727Z" fill="white"/>
</g>
</g>
<g id="start-button-wrapper">
<rect id="Rectangle 30" x="897" y="406" width="98" height="98" rx="8" fill="black"/>
<g id="start-button">
<circle id="Ellipse 2" cx="946" cy="455" r="31" fill="#FF0000"/>
<path id="Start" d="M935.798 452.783C935.763 452.439 935.617 452.172 935.359 451.982C935.1 451.791 934.749 451.696 934.306 451.696C934.005 451.696 933.751 451.739 933.543 451.824C933.336 451.906 933.177 452.021 933.066 452.169C932.958 452.317 932.904 452.484 932.904 452.672C932.898 452.828 932.931 452.964 933.002 453.081C933.076 453.197 933.177 453.298 933.305 453.384C933.433 453.466 933.58 453.538 933.748 453.601C933.915 453.661 934.094 453.712 934.285 453.754L935.069 453.942C935.45 454.027 935.799 454.141 936.117 454.283C936.435 454.425 936.711 454.599 936.944 454.807C937.177 455.014 937.357 455.259 937.485 455.54C937.616 455.821 937.683 456.143 937.685 456.507C937.683 457.041 937.546 457.504 937.276 457.896C937.009 458.286 936.623 458.588 936.117 458.804C935.614 459.017 935.008 459.124 934.298 459.124C933.593 459.124 932.979 459.016 932.457 458.8C931.937 458.584 931.531 458.264 931.238 457.841C930.948 457.415 930.796 456.888 930.782 456.26H932.567C932.587 456.553 932.671 456.797 932.819 456.993C932.969 457.186 933.17 457.332 933.42 457.432C933.673 457.528 933.958 457.577 934.276 457.577C934.589 457.577 934.86 457.531 935.09 457.44C935.323 457.349 935.504 457.223 935.631 457.061C935.759 456.899 935.823 456.713 935.823 456.503C935.823 456.307 935.765 456.142 935.648 456.009C935.535 455.875 935.367 455.761 935.146 455.668C934.927 455.574 934.658 455.489 934.34 455.412L933.39 455.173C932.654 454.994 932.073 454.714 931.647 454.334C931.221 453.953 931.009 453.44 931.012 452.795C931.009 452.267 931.15 451.805 931.434 451.411C931.721 451.016 932.114 450.707 932.614 450.486C933.114 450.264 933.683 450.153 934.319 450.153C934.967 450.153 935.532 450.264 936.015 450.486C936.501 450.707 936.879 451.016 937.148 451.411C937.418 451.805 937.558 452.263 937.566 452.783H935.798ZM942.374 452.455V453.818H938.432V452.455H942.374ZM939.327 450.886H941.142V456.989C941.142 457.156 941.168 457.287 941.219 457.381C941.27 457.472 941.341 457.536 941.432 457.572C941.526 457.609 941.634 457.628 941.756 457.628C941.841 457.628 941.926 457.621 942.012 457.607C942.097 457.589 942.162 457.577 942.208 457.568L942.493 458.919C942.402 458.947 942.275 458.98 942.11 459.017C941.945 459.057 941.745 459.081 941.509 459.089C941.071 459.107 940.688 459.048 940.358 458.915C940.032 458.781 939.777 458.574 939.596 458.293C939.414 458.011 939.324 457.656 939.327 457.227V450.886ZM945.423 459.124C945.005 459.124 944.633 459.051 944.306 458.906C943.98 458.759 943.721 458.541 943.531 458.254C943.343 457.964 943.25 457.604 943.25 457.172C943.25 456.808 943.316 456.503 943.45 456.256C943.583 456.009 943.765 455.81 943.995 455.659C944.225 455.509 944.487 455.395 944.779 455.318C945.075 455.241 945.385 455.188 945.708 455.156C946.089 455.116 946.396 455.08 946.629 455.045C946.862 455.009 947.031 454.955 947.136 454.884C947.241 454.812 947.294 454.707 947.294 454.568V454.543C947.294 454.273 947.208 454.064 947.038 453.916C946.87 453.768 946.632 453.695 946.322 453.695C945.995 453.695 945.735 453.767 945.542 453.912C945.349 454.054 945.221 454.233 945.159 454.449L943.48 454.312C943.565 453.915 943.733 453.571 943.983 453.281C944.233 452.989 944.555 452.764 944.95 452.608C945.348 452.449 945.808 452.369 946.331 452.369C946.694 452.369 947.042 452.412 947.375 452.497C947.71 452.582 948.007 452.714 948.265 452.893C948.527 453.072 948.733 453.303 948.883 453.584C949.034 453.862 949.109 454.196 949.109 454.585V459H947.387V458.092H947.336C947.231 458.297 947.091 458.477 946.914 458.634C946.738 458.787 946.527 458.908 946.279 458.996C946.032 459.081 945.747 459.124 945.423 459.124ZM945.943 457.871C946.21 457.871 946.446 457.818 946.65 457.713C946.855 457.605 947.015 457.46 947.132 457.278C947.248 457.097 947.306 456.891 947.306 456.661V455.966C947.25 456.003 947.172 456.037 947.072 456.068C946.975 456.097 946.866 456.124 946.744 456.149C946.622 456.172 946.5 456.193 946.377 456.213C946.255 456.23 946.145 456.246 946.045 456.26C945.832 456.291 945.646 456.341 945.487 456.409C945.328 456.477 945.204 456.57 945.116 456.686C945.028 456.8 944.984 456.942 944.984 457.112C944.984 457.359 945.074 457.548 945.252 457.679C945.434 457.807 945.664 457.871 945.943 457.871ZM950.517 459V452.455H952.277V453.597H952.346C952.465 453.19 952.665 452.884 952.946 452.676C953.228 452.466 953.551 452.361 953.918 452.361C954.009 452.361 954.107 452.366 954.212 452.378C954.317 452.389 954.409 452.405 954.489 452.425V454.036C954.404 454.01 954.286 453.987 954.135 453.967C953.985 453.947 953.847 453.938 953.722 453.938C953.455 453.938 953.216 453.996 953.006 454.112C952.799 454.226 952.634 454.385 952.512 454.589C952.392 454.794 952.333 455.03 952.333 455.297V459H950.517ZM959.237 452.455V453.818H955.295V452.455H959.237ZM956.19 450.886H958.006V456.989C958.006 457.156 958.031 457.287 958.082 457.381C958.134 457.472 958.205 457.536 958.295 457.572C958.389 457.609 958.497 457.628 958.619 457.628C958.705 457.628 958.79 457.621 958.875 457.607C958.96 457.589 959.026 457.577 959.071 457.568L959.357 458.919C959.266 458.947 959.138 458.98 958.973 459.017C958.808 459.057 958.608 459.081 958.372 459.089C957.935 459.107 957.551 459.048 957.222 458.915C956.895 458.781 956.641 458.574 956.459 458.293C956.277 458.011 956.188 457.656 956.19 457.227V450.886Z" fill="white"/>
</g>
</g>
</g>
<g id="direction-controls">
<path id="outer-controls" fill-rule="evenodd" clip-rule="evenodd" d="M309 238C309 233.582 305.418 230 301 230L262 230C257.582 230 254 226.418 254 222V183C254 178.582 250.418 175 246 175L162 175C157.582 175 154 178.582 154 183V222C154 226.418 150.418 230 146 230L107 230C102.582 230 99 233.582 99 238V322C99 326.418 102.582 330 107 330H146C150.418 330 154 333.582 154 338V377C154 381.418 157.582 385 162 385H246C250.418 385 254 381.418 254 377V338C254 333.582 257.582 330 262 330H301C305.418 330 309 326.418 309 322V238ZM226 310C230.418 310 234 306.418 234 302V258C234 253.582 230.418 250 226 250L182 250C177.582 250 174 253.582 174 258V302C174 306.418 177.582 310 182 310H226Z" fill="#4B4B4B"/>
<path id="inner-controls" fill-rule="evenodd" clip-rule="evenodd" d="M234 203C234 198.582 230.418 195 226 195H182C177.582 195 174 198.582 174 203V242C174 246.418 170.418 250 166 250L127 250C122.582 250 119 253.582 119 258V302C119 306.418 122.582 310 127 310H166C170.418 310 174 313.582 174 318V357C174 361.418 177.582 365 182 365H226C230.418 365 234 361.418 234 357V318C234 313.582 237.582 310 242 310H281C285.418 310 289 306.418 289 302V258C289 253.582 285.418 250 281 250L242 250C237.582 250 234 246.418 234 242V203ZM229 263C229 258.582 225.418 255 221 255H187C182.582 255 179 258.582 179 263V297C179 301.418 182.582 305 187 305H221C225.418 305 229 301.418 229 297V263Z" fill="white"/>
<g id="backward-control-button">
<path id="forward" d="M201 260H192C187.582 260 184 263.582 184 268V292C184 296.418 187.582 300 192 300H201V260Z" fill="black"/>
<path id="F" d="M189.249 284V275.273H195.027V276.794H191.094V278.874H194.644V280.395H191.094V284H189.249Z" fill="white"/>
</g>
<g id="forward-control-button">
<path id="backward" d="M207 300H216C220.418 300 224 296.418 224 292V268C224 263.582 220.418 260 216 260H207V300Z" fill="black"/>
<path id="B" d="M211.792 284V275.273H215.286C215.928 275.273 216.464 275.368 216.893 275.558C217.322 275.749 217.644 276.013 217.86 276.351C218.076 276.686 218.184 277.072 218.184 277.51C218.184 277.851 218.116 278.151 217.979 278.409C217.843 278.665 217.655 278.875 217.417 279.04C217.181 279.202 216.911 279.317 216.607 279.385V279.47C216.939 279.484 217.251 279.578 217.54 279.751C217.833 279.925 218.07 280.168 218.252 280.48C218.434 280.79 218.525 281.159 218.525 281.588C218.525 282.051 218.41 282.464 218.18 282.828C217.952 283.189 217.616 283.474 217.17 283.685C216.724 283.895 216.174 284 215.52 284H211.792ZM213.637 282.491H215.141C215.655 282.491 216.03 282.393 216.266 282.197C216.502 281.999 216.62 281.734 216.62 281.405C216.62 281.163 216.562 280.95 216.445 280.766C216.329 280.581 216.162 280.436 215.947 280.331C215.733 280.226 215.479 280.173 215.184 280.173H213.637V282.491ZM213.637 278.925H215.005C215.258 278.925 215.482 278.881 215.678 278.793C215.877 278.702 216.033 278.574 216.147 278.409C216.263 278.244 216.322 278.047 216.322 277.817C216.322 277.501 216.209 277.247 215.985 277.054C215.763 276.861 215.448 276.764 215.039 276.764H213.637V278.925Z" fill="white"/>
</g>
<rect id="right-control-button" x="239" y="260" width="40" height="40" rx="8" fill="black"/>
<rect id="left-control-button" x="129" y="260" width="40" height="40" rx="8" fill="black"/>
<rect id="down-control-button" x="224" y="315" width="40" height="40" rx="8" transform="rotate(90 224 315)" fill="black"/>
<rect id="up-control-button" x="224" y="205" width="40" height="40" rx="8" transform="rotate(90 224 205)" fill="black"/>
</g>
</g>
</svg>
